<svg xmlns="http://www.w3.org/2000/svg" width="25" height="26" viewBox="0 0 25 26" fill="none">
<mask id="path-1-inside-1_1512_8463" fill="white">
<path fill-rule="evenodd" clip-rule="evenodd" d="M14.9764 3.1382C14.9837 3.06368 14.9874 2.98811 14.9874 2.91166C14.9874 1.64893 13.9638 0.625282 12.7011 0.625282C11.4383 0.625282 10.4147 1.64893 10.4147 2.91166C10.4147 2.99233 10.4189 3.07203 10.427 3.15055C7.8864 3.89327 5.94658 5.83761 5.54968 8.2686L3.92464 18.222H2.27494C1.36384 18.222 0.625244 18.9606 0.625244 19.8717C0.625244 20.7828 1.36384 21.5214 2.27494 21.5214H7.65679C7.71476 21.7343 7.78628 21.9438 7.8711 22.1486C8.13373 22.7827 8.51868 23.3588 9.00395 23.844C9.48924 24.3293 10.0653 24.7143 10.6994 24.9769C11.3334 25.2395 12.013 25.3747 12.6993 25.3747C13.3856 25.3747 14.0652 25.2395 14.6992 24.9769C15.3333 24.7143 15.9094 24.3293 16.3947 23.844C16.8799 23.3588 17.2649 22.7827 17.5275 22.1486C17.6123 21.9438 17.6839 21.7343 17.7418 21.5214H23.1712C24.0823 21.5214 24.8209 20.7828 24.8209 19.8717C24.8209 18.9606 24.0823 18.222 23.1712 18.222H21.5214L19.8964 8.2686C19.4973 5.82402 17.5379 3.87154 14.9764 3.1382Z"/>
</mask>
<path fill-rule="evenodd" clip-rule="evenodd" d="M14.9764 3.1382C14.9837 3.06368 14.9874 2.98811 14.9874 2.91166C14.9874 1.64893 13.9638 0.625282 12.7011 0.625282C11.4383 0.625282 10.4147 1.64893 10.4147 2.91166C10.4147 2.99233 10.4189 3.07203 10.427 3.15055C7.8864 3.89327 5.94658 5.83761 5.54968 8.2686L3.92464 18.222H2.27494C1.36384 18.222 0.625244 18.9606 0.625244 19.8717C0.625244 20.7828 1.36384 21.5214 2.27494 21.5214H7.65679C7.71476 21.7343 7.78628 21.9438 7.8711 22.1486C8.13373 22.7827 8.51868 23.3588 9.00395 23.844C9.48924 24.3293 10.0653 24.7143 10.6994 24.9769C11.3334 25.2395 12.013 25.3747 12.6993 25.3747C13.3856 25.3747 14.0652 25.2395 14.6992 24.9769C15.3333 24.7143 15.9094 24.3293 16.3947 23.844C16.8799 23.3588 17.2649 22.7827 17.5275 22.1486C17.6123 21.9438 17.6839 21.7343 17.7418 21.5214H23.1712C24.0823 21.5214 24.8209 20.7828 24.8209 19.8717C24.8209 18.9606 24.0823 18.222 23.1712 18.222H21.5214L19.8964 8.2686C19.4973 5.82402 17.5379 3.87154 14.9764 3.1382Z" fill="white"/>
<path d="M14.9764 3.1382L13.4349 2.98658L13.3085 4.27182L14.5501 4.62726L14.9764 3.1382ZM10.427 3.15055L10.8616 4.63721L12.1009 4.2749L11.9676 2.99061L10.427 3.15055ZM5.54968 8.2686L4.02104 8.01903V8.01903L5.54968 8.2686ZM3.92464 18.222V19.7709H5.24115L5.45329 18.4716L3.92464 18.222ZM7.65679 21.5214L9.15129 21.1145L8.8404 19.9725H7.65679V21.5214ZM7.8711 22.1486L6.44011 22.7413L6.44011 22.7413L7.8711 22.1486ZM9.00395 23.844L10.0992 22.7488L9.00395 23.844ZM10.6994 24.9769L10.1067 26.4079L10.1067 26.4079L10.6994 24.9769ZM14.6992 24.9769L15.2919 26.4079L15.2919 26.4079L14.6992 24.9769ZM16.3947 23.844L15.2994 22.7488L15.2994 22.7488L16.3947 23.844ZM17.5275 22.1486L18.9585 22.7413L18.9585 22.7413L17.5275 22.1486ZM17.7418 21.5214V19.9725H16.5582L16.2473 21.1145L17.7418 21.5214ZM21.5214 18.222L19.9928 18.4716L20.2049 19.7709H21.5214V18.222ZM19.8964 8.2686L21.425 8.01903L19.8964 8.2686ZM13.4386 2.91166C13.4386 2.9374 13.4373 2.96237 13.4349 2.98658L16.5178 3.28982C16.5301 3.16499 16.5363 3.03882 16.5363 2.91166H13.4386ZM12.7011 2.17417C13.1084 2.17417 13.4386 2.50436 13.4386 2.91166H16.5363C16.5363 0.793504 14.8192 -0.923603 12.7011 -0.923603V2.17417ZM11.9636 2.91166C11.9636 2.50436 12.2938 2.17417 12.7011 2.17417V-0.923603C10.5829 -0.923603 8.8658 0.793504 8.8658 2.91166H11.9636ZM11.9676 2.99061C11.965 2.96513 11.9636 2.93882 11.9636 2.91166H8.8658C8.8658 3.04585 8.87275 3.17893 8.88641 3.31048L11.9676 2.99061ZM7.07833 8.51818C7.36257 6.7772 8.78774 5.24349 10.8616 4.63721L9.9924 1.66388C6.98506 2.54305 4.53059 4.89802 4.02104 8.01903L7.07833 8.51818ZM5.45329 18.4716L7.07833 8.51818L4.02104 8.01903L2.39599 17.9724L5.45329 18.4716ZM2.27494 19.7709H3.92464V16.6731H2.27494V19.7709ZM2.17413 19.8717C2.17413 19.816 2.21927 19.7709 2.27494 19.7709V16.6731C0.508414 16.6731 -0.923641 18.1051 -0.923641 19.8717H2.17413ZM2.27494 19.9725C2.21927 19.9725 2.17413 19.9274 2.17413 19.8717H-0.923641C-0.923641 21.6382 0.508412 23.0703 2.27494 23.0703V19.9725ZM7.65679 19.9725H2.27494V23.0703H7.65679V19.9725ZM9.30208 21.5559C9.2424 21.4118 9.19208 21.2644 9.15129 21.1145L6.16229 21.9282C6.23744 22.2043 6.33016 22.4759 6.44011 22.7413L9.30208 21.5559ZM10.0992 22.7488C9.75773 22.4074 9.48687 22.002 9.30208 21.5559L6.44011 22.7413C6.78058 23.5633 7.27962 24.3102 7.90873 24.9393L10.0992 22.7488ZM11.2921 23.5459C10.846 23.3611 10.4406 23.0903 10.0992 22.7488L7.90873 24.9393C8.53784 25.5684 9.28469 26.0674 10.1067 26.4079L11.2921 23.5459ZM12.6993 23.8258C12.2164 23.8258 11.7383 23.7307 11.2921 23.5459L10.1067 26.4079C10.9286 26.7484 11.8096 26.9236 12.6993 26.9236V23.8258ZM14.1065 23.5459C13.6603 23.7307 13.1822 23.8258 12.6993 23.8258V26.9236C13.589 26.9236 14.47 26.7484 15.2919 26.4079L14.1065 23.5459ZM15.2994 22.7488C14.958 23.0903 14.5526 23.3611 14.1065 23.5459L15.2919 26.4079C16.1139 26.0674 16.8608 25.5684 17.4899 24.9393L15.2994 22.7488ZM16.0965 21.5559C15.9117 22.002 15.6409 22.4074 15.2994 22.7488L17.4899 24.9393C18.119 24.3102 18.618 23.5633 18.9585 22.7413L16.0965 21.5559ZM16.2473 21.1145C16.2065 21.2644 16.1562 21.4118 16.0965 21.5559L18.9585 22.7413C19.0684 22.4759 19.1612 22.2043 19.2363 21.9282L16.2473 21.1145ZM23.1712 19.9725H17.7418V23.0703H23.1712V19.9725ZM23.272 19.8717C23.272 19.9274 23.2268 19.9725 23.1712 19.9725V23.0703C24.9377 23.0703 26.3697 21.6382 26.3697 19.8717H23.272ZM23.1712 19.7709C23.2268 19.7709 23.272 19.816 23.272 19.8717H26.3697C26.3697 18.1051 24.9377 16.6731 23.1712 16.6731V19.7709ZM21.5214 19.7709H23.1712V16.6731H21.5214V19.7709ZM18.3677 8.51818L19.9928 18.4716L23.0501 17.9724L21.425 8.01903L18.3677 8.51818ZM14.5501 4.62726C16.642 5.22617 18.0819 6.76757 18.3677 8.51818L21.425 8.01903C20.9126 4.88047 18.4338 2.51691 15.4027 1.64914L14.5501 4.62726Z" fill="white" mask="url(#path-1-inside-1_1512_8463)"/>
</svg>