<svg xmlns="http://www.w3.org/2000/svg" width="67" height="50" viewBox="0 0 67 50" fill="none">
<path fill-rule="evenodd" clip-rule="evenodd" d="M66.8229 13.9164C66.8229 20.7686 64.8307 27.1576 61.3915 32.5409C61.4038 32.6436 61.3783 32.7527 61.3044 32.8468L60.4781 33.899C59.8034 34.8531 59.0816 35.7718 58.3162 36.652L47.8339 50H15.9934L5.51828 36.6653C4.74707 35.7794 4.02012 34.8543 3.34084 33.8934L2.51869 32.8468C2.44483 32.7528 2.41924 32.6438 2.43155 32.5411C1.51477 31.1061 0.700814 29.5997 0 28.0321V10C0 4.47715 4.47715 0 10 0H63.9112C65.7839 4.26097 66.8229 8.96789 66.8229 13.9164ZM41.742 12.4923C41.742 17.66 37.3847 21.8493 32.0097 21.8493C26.6346 21.8493 22.2773 17.66 22.2773 12.4923C22.2773 7.32448 26.6346 3.13517 32.0097 3.13517C37.3847 3.13517 41.742 7.32448 41.742 12.4923Z" fill="white"/>
</svg>