<svg xmlns="http://www.w3.org/2000/svg" width="70" height="50" viewBox="0 0 70 50" fill="none">
<path fill-rule="evenodd" clip-rule="evenodd" d="M0 16.6931C4.20605 17.1412 9.40128 17.8589 14.9392 18.7112C16.5793 16.1609 18.0415 13.8128 19.2541 11.7372C20.0522 10.3563 19.1373 8.6111 17.5216 8.45767L14.8549 8.32342C10.9228 7.95903 9.42399 4.27675 9.59918 0.402678C9.6051 0.270759 9.61499 0.138766 9.62871 0.00676503C9.75192 0.00226805 9.8757 0 10 0H58.3672C56.3773 4.96508 51.3824 12.7097 45.7644 21.4205L45.7546 21.4356C45.2504 22.2174 44.7411 23.0069 44.2287 23.8029C49.0468 24.7294 53.01 25.5442 55.421 26.1019C56.2969 26.2937 56.9977 25.4307 56.7446 24.4718L56.7251 24.4526L56.2385 22.8799C55.6156 20.5402 57.1923 18.9675 59.2362 18.3346C62.2144 17.4141 66.7693 20.6744 68.2877 23.5896C70.935 28.6719 69.0079 32.7953 66.3216 33.1597C63.9495 33.473 56.2162 32.2264 46.7546 30.7011L46.7545 30.7011L46.7544 30.7011C44.7263 30.3742 42.6187 30.0344 40.4675 29.6945C38.4165 32.9526 36.3662 36.2719 34.4377 39.5461L34.4348 39.5146C34.0565 40.0831 33.6827 40.6459 33.314 41.2027C37.2669 41.9749 40.5103 42.649 42.5942 43.1311C43.4701 43.3229 44.1709 42.4599 43.9178 41.501L43.8984 41.4818L43.4117 39.9091C42.7888 37.5694 44.3655 35.9967 46.4094 35.3638C49.3876 34.4433 53.9426 37.7036 55.4609 40.6188C57.8689 45.2417 56.4921 49.0713 54.2018 50H49.1941C45.502 49.5961 40.0803 48.7221 33.9279 47.7303L33.9267 47.7301L33.9176 47.7287C32.4851 47.4978 31.013 47.2605 29.5139 47.0212C28.8543 48.0496 28.2247 49.0441 27.6298 50H18.1028C18.9943 48.5993 19.9211 47.1573 20.8709 45.6831C16.6487 45.0568 12.402 44.4777 8.38285 44.0347C7.28861 45.7078 6.25444 47.3112 5.29781 48.8277C2.14534 47.145 0 43.823 0 40V35.4194C1.30953 35.6157 2.64374 35.8208 3.99359 36.0329C6.0467 32.7757 8.10355 29.4534 10.0425 26.1726C5.65302 26.0664 2.10941 26.3569 0 27.2516V16.6931ZM23.5517 20.0954C27.3731 14.1669 30.8413 8.74059 33.178 4.40902C33.906 6.51926 35.4223 8.09177 37.922 8.32342L40.5888 8.45767C42.2044 8.6111 43.1193 10.3563 42.3212 11.7372C40.5709 14.7331 38.3007 18.2969 35.7259 22.2166C31.8227 21.5088 27.6834 20.7848 23.5517 20.0954ZM24.794 39.5915C25.3534 38.7192 25.9149 37.8406 26.4765 36.9574C28.2643 34.1303 30.0636 31.246 31.794 28.3752C27.5075 27.756 23.2348 27.1992 19.2391 26.7977C18.8941 27.3373 18.5485 27.879 18.2029 28.4226C16.3241 31.3937 14.4325 34.4279 12.6215 37.4433C16.7931 38.1494 20.9344 38.883 24.794 39.5915Z" fill="white"/>
</svg>