<svg xmlns="http://www.w3.org/2000/svg" width="44" height="44" viewBox="0 0 44 44" fill="none">
<circle cx="22" cy="22" r="22" fill="white"/>
<path d="M17.7511 29.8239L13.4975 31.6375C13.4213 31.6699 13.3423 31.5976 13.368 31.5189L14.7834 27.1739C14.7881 27.1594 14.7963 27.1461 14.8072 27.1353L26.6286 15.417C26.6666 15.3793 26.7281 15.3798 26.7655 15.4181L28.186 16.8716L29.6063 18.325C29.6438 18.3633 29.6428 18.4249 29.6041 18.462L17.7801 29.8048C17.7717 29.8128 17.7619 29.8193 17.7511 29.8239Z" fill="black" stroke="black" stroke-width="0.964367"/>
<path d="M32.065 16.9944C31.8802 17.2093 31.5538 17.2159 31.3597 17.0087L28.5061 13.9603C28.3353 13.7779 28.3291 13.4932 28.4917 13.304L30.2278 11.2848C30.4126 11.0699 30.739 11.0633 30.933 11.2706L33.7867 14.3189C33.9575 14.5014 33.9637 14.786 33.8011 14.9752L32.065 16.9944Z" fill="black"/>
</svg>