<svg xmlns="http://www.w3.org/2000/svg" width="32" height="32" viewBox="0 0 32 32" fill="none">
<path fill-rule="evenodd" clip-rule="evenodd" d="M26.3928 4.15505C26.568 4.51035 26.6665 4.91032 26.6665 5.33329V26.6666C26.6665 27.0918 26.567 27.4937 26.39 27.8504C24.7232 26.7328 23.2687 25.1516 22.1929 23.1527C18.687 16.6378 20.5319 8.15587 26.316 4.20701C26.3416 4.18957 26.3671 4.17225 26.3928 4.15505ZM26.2219 3.85845C26.1996 3.87353 26.1774 3.88865 26.1552 3.90382C17.6858 9.68661 13.7334 19.7917 17.328 26.473C17.9319 27.5954 18.7104 28.5497 19.628 29.3333H9.33317C7.86041 29.3333 6.6665 28.1394 6.6665 26.6666V5.33329C6.6665 3.86053 7.86041 2.66663 9.33317 2.66663H23.9998C24.9273 2.66663 25.7441 3.14007 26.2219 3.85845Z" fill="#686868"/>
<circle cx="9.33333" cy="7.99996" r="1.33333" fill="#686868"/>
<circle cx="9.33333" cy="13.3333" r="1.33333" fill="#686868"/>
<circle cx="9.33333" cy="18.6666" r="1.33333" fill="#686868"/>
<circle cx="9.33333" cy="24" r="1.33333" fill="#686868"/>
<path d="M5.3335 8H8.00016" stroke="#686868" stroke-width="2.66667" stroke-linecap="round"/>
<path d="M5.3335 13.3333H8.00016" stroke="#686868" stroke-width="2.66667" stroke-linecap="round"/>
<path d="M5.3335 18.6666H8.00016" stroke="#686868" stroke-width="2.66667" stroke-linecap="round"/>
<path d="M5.3335 24H8.00016" stroke="#686868" stroke-width="2.66667" stroke-linecap="round"/>
</svg>