<svg xmlns="http://www.w3.org/2000/svg" width="32" height="32" viewBox="0 0 32 32" fill="none">
<path fill-rule="evenodd" clip-rule="evenodd" d="M20 16.0001C20 17.1597 19.9385 18.2771 19.8247 19.3333H12.1754C12.0616 18.2771 12 17.1597 12 16.0001C12 14.8403 12.0616 13.7229 12.1754 12.6666H19.8246C19.9384 13.7229 20 14.8403 20 16.0001ZM21.3334 16.0001C21.3334 17.151 21.275 18.2679 21.1653 19.3333H27.531C27.8364 18.275 28 17.1566 28 16C28 14.8434 27.8364 13.7249 27.531 12.6666H21.1653C21.275 13.7321 21.3334 14.849 21.3334 16.0001ZM27.0588 11.3333C25.5568 7.77836 22.3907 5.09804 18.5368 4.26862C19.6628 5.79356 20.5445 8.30209 20.9976 11.3333H27.0588ZM13.4633 4.26861C9.60933 5.098 6.44321 7.77833 4.94121 11.3333H11.0025C11.4556 8.30207 12.3373 5.79354 13.4633 4.26861ZM4.46902 12.6666H10.8347C10.725 13.7321 10.6667 14.849 10.6667 16.0001C10.6667 17.083 10.7183 18.1359 10.8158 19.144C8.85202 18.6068 6.648 18.5209 4.35202 18.897C4.12204 17.9692 4 16.9988 4 16C4 14.8434 4.16364 13.7249 4.46902 12.6666ZM18.0813 25.9301C17.8848 25.3305 17.6378 24.7502 17.3384 24.1936C16.5511 22.7303 15.467 21.5527 14.1648 20.6666H19.6487C19.3919 22.3007 19.0065 23.7501 18.5333 24.933C18.3874 25.2977 18.236 25.6301 18.0813 25.9301ZM18.5369 27.7313C22.3908 26.9019 25.5568 24.2216 27.0588 20.6666H20.9976C20.5445 23.6978 19.6629 26.2063 18.5369 27.7313ZM12.3514 11.3333C12.6082 9.69932 12.9936 8.25001 13.4668 7.06716C13.9121 5.9537 14.4091 5.1421 14.8928 4.63067C15.3738 4.12206 15.7484 4.00006 16 4.00006C16.2517 4.00006 16.6263 4.12206 17.1073 4.63067C17.5909 5.1421 18.0879 5.9537 18.5333 7.06716C19.0064 8.25001 19.3919 9.69932 19.6487 11.3333H12.3514ZM12.4407 27.4633C9.30507 26.4908 6.71984 24.2671 5.26864 21.3759C8.15471 22.2758 10.7552 24.3628 12.4407 27.4633Z" fill="#686868"/>
</svg>