<svg xmlns="http://www.w3.org/2000/svg" width="32" height="32" viewBox="0 0 32 32" fill="none">
<mask id="path-1-inside-1_2684_10867" fill="white">
<path fill-rule="evenodd" clip-rule="evenodd" d="M10.1454 6.45997L13.9338 3.29325C14.8979 2.48739 16.2937 2.46386 17.2844 3.23676L25.2211 9.42879C20.1449 12.5697 13.8768 11.2377 10.1454 6.45997ZM5.73331 10.148C10.0931 14.4984 18.2435 14.4483 25.51 9.65413L26.9737 10.7961C27.6214 11.3014 28.0001 12.0771 28.0001 12.8986V25.3333C28.0001 26.8061 26.8062 28 25.3334 28H21.0926C20.2292 28 19.5294 27.3001 19.5294 26.4367L19.5296 19.3631C19.5296 18.6267 18.9326 18.0298 18.1962 18.0298H13.8044C13.068 18.0298 12.4711 18.6267 12.471 19.3631L12.4709 26.4368C12.4708 27.3001 11.771 28 10.9076 28H6.66674C5.19398 28 4.00008 26.8061 4.00008 25.3333V12.8434C4.00008 12.0534 4.35036 11.304 4.95649 10.7974L5.73331 10.148Z"/>
</mask>
<path fill-rule="evenodd" clip-rule="evenodd" d="M10.1454 6.45997L13.9338 3.29325C14.8979 2.48739 16.2937 2.46386 17.2844 3.23676L25.2211 9.42879C20.1449 12.5697 13.8768 11.2377 10.1454 6.45997ZM5.73331 10.148C10.0931 14.4984 18.2435 14.4483 25.51 9.65413L26.9737 10.7961C27.6214 11.3014 28.0001 12.0771 28.0001 12.8986V25.3333C28.0001 26.8061 26.8062 28 25.3334 28H21.0926C20.2292 28 19.5294 27.3001 19.5294 26.4367L19.5296 19.3631C19.5296 18.6267 18.9326 18.0298 18.1962 18.0298H13.8044C13.068 18.0298 12.4711 18.6267 12.471 19.3631L12.4709 26.4368C12.4708 27.3001 11.771 28 10.9076 28H6.66674C5.19398 28 4.00008 26.8061 4.00008 25.3333V12.8434C4.00008 12.0534 4.35036 11.304 4.95649 10.7974L5.73331 10.148Z" fill="#686868"/>
<path d="M13.9338 3.29325L12.8222 1.96335L13.9338 3.29325ZM10.1454 6.45997L9.03375 5.13006L7.74728 6.20542L8.77934 7.52687L10.1454 6.45997ZM17.2844 3.23676L18.3506 1.87014L18.3506 1.87014L17.2844 3.23676ZM25.2211 9.42879L26.1332 10.9028L28.2497 9.59317L26.2873 8.06217L25.2211 9.42879ZM5.73331 10.148L6.95764 8.92106L5.83666 7.8025L4.62165 8.81813L5.73331 10.148ZM25.51 9.65413L26.5762 8.2875L25.5946 7.5217L24.5554 8.20731L25.51 9.65413ZM26.9737 10.7961L28.0399 9.42948L26.9737 10.7961ZM19.5294 26.4367L17.796 26.4367L19.5294 26.4367ZM19.5296 19.3631L17.7962 19.3631V19.3631L19.5296 19.3631ZM12.471 19.3631L14.2044 19.3631L12.471 19.3631ZM12.4709 26.4368L14.2042 26.4369V26.4369L12.4709 26.4368ZM4.95649 10.7974L3.84483 9.46747H3.84483L4.95649 10.7974ZM12.8222 1.96335L9.03375 5.13006L11.2571 7.78987L15.0455 4.62316L12.8222 1.96335ZM18.3506 1.87014C16.716 0.594851 14.4129 0.633682 12.8222 1.96335L15.0455 4.62316C15.3829 4.34111 15.8714 4.33287 16.2182 4.60339L18.3506 1.87014ZM26.2873 8.06217L18.3506 1.87014L16.2182 4.60339L24.1549 10.7954L26.2873 8.06217ZM24.3091 7.9548C20.0423 10.5949 14.7411 9.52832 11.5115 5.39306L8.77934 7.52687C13.0125 12.9471 20.2475 14.5445 26.1332 10.9028L24.3091 7.9548ZM4.50899 11.375C9.685 16.5398 18.8316 16.1369 26.4645 11.1009L24.5554 8.20731C17.6555 12.7596 10.5012 12.4569 6.95764 8.92106L4.50899 11.375ZM28.0399 9.42948L26.5762 8.2875L24.4438 11.0208L25.9075 12.1627L28.0399 9.42948ZM29.7334 12.8986C29.7334 11.5431 29.1086 10.2633 28.0399 9.42948L25.9075 12.1627C26.1342 12.3396 26.2667 12.6111 26.2667 12.8986H29.7334ZM29.7334 25.3333V12.8986H26.2667V25.3333H29.7334ZM25.3334 29.7333C27.7635 29.7333 29.7334 27.7634 29.7334 25.3333H26.2667C26.2667 25.8488 25.8489 26.2666 25.3334 26.2666V29.7333ZM21.0926 29.7333H25.3334V26.2666H21.0926V29.7333ZM17.796 26.4367C17.796 28.2573 19.2719 29.7333 21.0926 29.7333V26.2666C21.1865 26.2666 21.2627 26.3428 21.2627 26.4368L17.796 26.4367ZM17.7962 19.3631L17.796 26.4367L21.2627 26.4368L21.2629 19.3632L17.7962 19.3631ZM18.1962 19.7631C17.9753 19.7631 17.7962 19.584 17.7962 19.3631L21.2629 19.3632C21.2629 17.6695 19.8899 16.2964 18.1962 16.2964V19.7631ZM13.8044 19.7631H18.1962V16.2964H13.8044V19.7631ZM14.2044 19.3631C14.2044 19.584 14.0253 19.7631 13.8044 19.7631V16.2964C12.1107 16.2964 10.7378 17.6694 10.7377 19.363L14.2044 19.3631ZM14.2042 26.4369L14.2044 19.3631L10.7377 19.363L10.7375 26.4368L14.2042 26.4369ZM10.9076 29.7333C12.7282 29.7333 14.2041 28.2575 14.2042 26.4369L10.7375 26.4368C10.7375 26.3428 10.8137 26.2666 10.9076 26.2666V29.7333ZM6.66674 29.7333H10.9076V26.2666H6.66674V29.7333ZM2.26674 25.3333C2.26674 27.7634 4.23669 29.7333 6.66674 29.7333V26.2666C6.15128 26.2666 5.73341 25.8488 5.73341 25.3333H2.26674ZM2.26674 12.8434V25.3333H5.73341V12.8434H2.26674ZM3.84483 9.46747C2.84471 10.3035 2.26674 11.5399 2.26674 12.8434H5.73341C5.73341 12.5669 5.85601 12.3046 6.06815 12.1273L3.84483 9.46747ZM4.62165 8.81813L3.84483 9.46747L6.06815 12.1273L6.84498 11.4779L4.62165 8.81813Z" fill="#686868" mask="url(#path-1-inside-1_2684_10867)"/>
</svg>