<svg xmlns="http://www.w3.org/2000/svg" width="32" height="32" viewBox="0 0 32 32" fill="none">
<mask id="path-1-inside-1_2752_4370" fill="white">
<path fill-rule="evenodd" clip-rule="evenodd" d="M10.1453 6.45998L13.9337 3.29327C14.8978 2.48741 16.2936 2.46388 17.2843 3.23678L25.2211 9.42881C20.1448 12.5697 13.8767 11.2377 10.1453 6.45998ZM5.73324 10.1481C10.093 14.4984 18.2434 14.4483 25.5099 9.65414L26.9736 10.7961C27.6214 11.3014 28 12.0771 28 12.8986V25.3333C28 26.8061 26.8061 28 25.3333 28H21.0925C20.2292 28 19.5293 27.3001 19.5293 26.4367L19.5295 19.3631C19.5295 18.6267 18.9326 18.0298 18.1962 18.0298H13.8043C13.0679 18.0298 12.471 18.6267 12.471 19.3631L12.4708 26.4368C12.4708 27.3001 11.7709 28 10.9076 28H6.66667C5.19391 28 4 26.8061 4 25.3333V12.8434C4 12.0534 4.35028 11.3041 4.95641 10.7974L5.73324 10.1481Z"/>
</mask>
<path fill-rule="evenodd" clip-rule="evenodd" d="M10.1453 6.45998L13.9337 3.29327C14.8978 2.48741 16.2936 2.46388 17.2843 3.23678L25.2211 9.42881C20.1448 12.5697 13.8767 11.2377 10.1453 6.45998ZM5.73324 10.1481C10.093 14.4984 18.2434 14.4483 25.5099 9.65414L26.9736 10.7961C27.6214 11.3014 28 12.0771 28 12.8986V25.3333C28 26.8061 26.8061 28 25.3333 28H21.0925C20.2292 28 19.5293 27.3001 19.5293 26.4367L19.5295 19.3631C19.5295 18.6267 18.9326 18.0298 18.1962 18.0298H13.8043C13.0679 18.0298 12.471 18.6267 12.471 19.3631L12.4708 26.4368C12.4708 27.3001 11.7709 28 10.9076 28H6.66667C5.19391 28 4 26.8061 4 25.3333V12.8434C4 12.0534 4.35028 11.3041 4.95641 10.7974L5.73324 10.1481Z" fill="white"/>
<path d="M13.9337 3.29327L12.8221 1.96336L13.9337 3.29327ZM10.1453 6.45998L9.03367 5.13008L7.74721 6.20543L8.77926 7.52689L10.1453 6.45998ZM17.2843 3.23678L18.3505 1.87015L18.3505 1.87015L17.2843 3.23678ZM25.2211 9.42881L26.1331 10.9028L28.2496 9.59318L26.2873 8.06219L25.2211 9.42881ZM5.73324 10.1481L6.95756 8.92107L5.83659 7.80252L4.62157 8.81815L5.73324 10.1481ZM25.5099 9.65414L26.5761 8.28752L25.5945 7.52172L24.5553 8.20733L25.5099 9.65414ZM26.9736 10.7961L28.0398 9.4295L26.9736 10.7961ZM19.5293 26.4367L17.796 26.4367L19.5293 26.4367ZM19.5295 19.3631L17.7962 19.3631V19.3631L19.5295 19.3631ZM12.471 19.3631L14.2043 19.3631L12.471 19.3631ZM12.4708 26.4368L14.2041 26.4369V26.4369L12.4708 26.4368ZM4.95641 10.7974L3.84475 9.46749H3.84475L4.95641 10.7974ZM12.8221 1.96336L9.03367 5.13008L11.257 7.78989L15.0454 4.62317L12.8221 1.96336ZM18.3505 1.87015C16.7159 0.594866 14.4128 0.633697 12.8221 1.96336L15.0454 4.62317C15.3828 4.34112 15.8714 4.33289 16.2181 4.6034L18.3505 1.87015ZM26.2873 8.06219L18.3505 1.87015L16.2181 4.6034L24.1549 10.7954L26.2873 8.06219ZM24.309 7.95482C20.0422 10.5949 14.7411 9.52834 11.5114 5.39308L8.77926 7.52689C13.0124 12.9471 20.2474 14.5445 26.1331 10.9028L24.309 7.95482ZM4.50891 11.375C9.68493 16.5399 18.8315 16.1369 26.4644 11.101L24.5553 8.20733C17.6554 12.7596 10.5011 12.457 6.95756 8.92107L4.50891 11.375ZM28.0398 9.4295L26.5761 8.28752L24.4437 11.0208L25.9074 12.1627L28.0398 9.4295ZM29.7333 12.8986C29.7333 11.5431 29.1086 10.2633 28.0398 9.4295L25.9074 12.1627C26.1341 12.3396 26.2667 12.6111 26.2667 12.8986H29.7333ZM29.7333 25.3333V12.8986H26.2667V25.3333H29.7333ZM25.3333 29.7333C27.7634 29.7333 29.7333 27.7634 29.7333 25.3333H26.2667C26.2667 25.8488 25.8488 26.2667 25.3333 26.2667V29.7333ZM21.0925 29.7333H25.3333V26.2667H21.0925V29.7333ZM17.796 26.4367C17.7959 28.2574 19.2718 29.7333 21.0925 29.7333V26.2667C21.1865 26.2667 21.2626 26.3428 21.2626 26.4368L17.796 26.4367ZM17.7962 19.3631L17.796 26.4367L21.2626 26.4368L21.2628 19.3632L17.7962 19.3631ZM18.1962 19.7631C17.9752 19.7631 17.7962 19.584 17.7962 19.3631L21.2628 19.3632C21.2629 17.6695 19.8899 16.2964 18.1962 16.2964V19.7631ZM13.8043 19.7631H18.1962V16.2964H13.8043V19.7631ZM14.2043 19.3631C14.2043 19.584 14.0252 19.7631 13.8043 19.7631V16.2964C12.1107 16.2964 10.7377 17.6694 10.7376 19.363L14.2043 19.3631ZM14.2041 26.4369L14.2043 19.3631L10.7376 19.363L10.7374 26.4368L14.2041 26.4369ZM10.9076 29.7333C12.7282 29.7333 14.2041 28.2575 14.2041 26.4369L10.7374 26.4368C10.7375 26.3428 10.8136 26.2667 10.9076 26.2667V29.7333ZM6.66667 29.7333H10.9076V26.2667H6.66667V29.7333ZM2.26667 25.3333C2.26667 27.7634 4.23661 29.7333 6.66667 29.7333V26.2667C6.1512 26.2667 5.73333 25.8488 5.73333 25.3333H2.26667ZM2.26667 12.8434V25.3333H5.73333V12.8434H2.26667ZM3.84475 9.46749C2.84463 10.3035 2.26667 11.5399 2.26667 12.8434H5.73333C5.73333 12.5669 5.85593 12.3046 6.06808 12.1273L3.84475 9.46749ZM4.62157 8.81815L3.84475 9.46749L6.06808 12.1273L6.8449 11.478L4.62157 8.81815Z" fill="white" mask="url(#path-1-inside-1_2752_4370)"/>
</svg>