<svg xmlns="http://www.w3.org/2000/svg" width="32" height="32" viewBox="0 0 32 32" fill="none">
<path fill-rule="evenodd" clip-rule="evenodd" d="M20.0002 16.0001C20.0002 17.1597 19.9386 18.2771 19.8248 19.3333H12.1756C12.0618 18.2771 12.0002 17.1597 12.0002 16.0001C12.0002 14.8403 12.0618 13.723 12.1756 12.6667H19.8248C19.9386 13.723 20.0002 14.8403 20.0002 16.0001ZM21.3335 16.0001C21.3335 17.151 21.2752 18.268 21.1655 19.3333H27.5311C27.8365 18.275 28.0002 17.1566 28.0002 16C28.0002 14.8434 27.8365 13.725 27.5311 12.6667H21.1655C21.2752 13.7321 21.3335 14.849 21.3335 16.0001ZM27.0589 11.3333C25.557 7.77837 22.3909 5.09805 18.5369 4.26864C19.6629 5.79357 20.5446 8.3021 20.9977 11.3333H27.0589ZM13.4634 4.26862C9.60948 5.09802 6.44336 7.77835 4.94136 11.3333H11.0027C11.4557 8.30209 12.3375 5.79356 13.4634 4.26862ZM4.46917 12.6667H10.8349C10.7252 13.7321 10.6669 14.849 10.6669 16.0001C10.6669 17.0831 10.7185 18.1359 10.816 19.144C8.85217 18.6068 6.64815 18.5209 4.35218 18.897C4.12219 17.9692 4.00015 16.9989 4.00015 16C4.00015 14.8434 4.16379 13.725 4.46917 12.6667ZM18.0814 25.9301C17.885 25.3305 17.6379 24.7502 17.3385 24.1937C16.5512 22.7303 15.4671 21.5527 14.165 20.6667H19.6488C19.392 22.3007 19.0066 23.7501 18.5335 24.933C18.3876 25.2977 18.2361 25.6301 18.0814 25.9301ZM18.5371 27.7313C22.3909 26.9019 25.557 24.2216 27.0589 20.6667H20.9977C20.5447 23.6978 19.663 26.2063 18.5371 27.7313ZM12.3516 11.3333C12.6084 9.69933 12.9938 8.25003 13.4669 7.06717C13.9123 5.95371 14.4093 5.14211 14.893 4.63069C15.3739 4.12208 15.7486 4.00008 16.0002 4.00008C16.2518 4.00008 16.6264 4.12208 17.1074 4.63069C17.5911 5.14211 18.0881 5.95371 18.5335 7.06717C19.0066 8.25003 19.392 9.69933 19.6488 11.3333H12.3516ZM12.4409 27.4633C9.30523 26.4908 6.71999 24.2672 5.26879 21.3759C8.15486 22.2759 10.7553 24.3628 12.4409 27.4633Z" fill="white"/>
</svg>