<svg xmlns="http://www.w3.org/2000/svg" width="32" height="32" viewBox="0 0 32 32" fill="none">
<mask id="path-1-inside-1_2684_10847" fill="white">
<path fill-rule="evenodd" clip-rule="evenodd" d="M16.3838 14.6545C16.2567 14.6626 16.1285 14.6666 15.9994 14.6666C12.6857 14.6666 9.99937 11.9804 9.99937 8.66664C9.99937 7.89655 10.1445 7.16034 10.4088 6.48385C12.2973 7.61067 13.9482 9.30925 15.1367 11.5177C15.6784 12.5243 16.0924 13.5779 16.3838 14.6545ZM21.1749 11.704C20.9771 10.4652 20.5915 9.28385 20.0049 8.19368C18.6301 5.63832 16.3502 3.95429 13.5845 3.17241C14.3234 2.84719 15.1403 2.66664 15.9994 2.66664C19.3131 2.66664 21.9994 5.35293 21.9994 8.66664C21.9994 9.77496 21.6989 10.8131 21.1749 11.704ZM16.6867 16.0224C16.4565 16.0075 16.2257 16 15.9945 16C14.5069 16 13.0338 16.3104 11.6594 16.9134C10.285 17.5165 9.03621 18.4004 7.98429 19.5147C6.93238 20.629 6.09796 21.9519 5.52866 23.4078C5.20104 24.2456 4.96492 25.1181 4.82349 26.0082C4.65016 27.0991 5.56179 28 6.66636 28L13.6878 28C16.3242 24.7692 17.4281 20.2969 16.6867 16.0224ZM14.5661 28C17.8422 24.8271 20.0621 20.9722 20.9276 17.1976C22.067 17.7815 23.1075 18.5643 24.0047 19.5147C25.0566 20.629 25.891 21.9519 26.4603 23.4078C26.7879 24.2456 27.0241 25.1181 27.1655 26.0082C27.3388 27.0991 26.4272 28 25.3226 28L14.5661 28Z"/>
</mask>
<path fill-rule="evenodd" clip-rule="evenodd" d="M16.3838 14.6545C16.2567 14.6626 16.1285 14.6666 15.9994 14.6666C12.6857 14.6666 9.99937 11.9804 9.99937 8.66664C9.99937 7.89655 10.1445 7.16034 10.4088 6.48385C12.2973 7.61067 13.9482 9.30925 15.1367 11.5177C15.6784 12.5243 16.0924 13.5779 16.3838 14.6545ZM21.1749 11.704C20.9771 10.4652 20.5915 9.28385 20.0049 8.19368C18.6301 5.63832 16.3502 3.95429 13.5845 3.17241C14.3234 2.84719 15.1403 2.66664 15.9994 2.66664C19.3131 2.66664 21.9994 5.35293 21.9994 8.66664C21.9994 9.77496 21.6989 10.8131 21.1749 11.704ZM16.6867 16.0224C16.4565 16.0075 16.2257 16 15.9945 16C14.5069 16 13.0338 16.3104 11.6594 16.9134C10.285 17.5165 9.03621 18.4004 7.98429 19.5147C6.93238 20.629 6.09796 21.9519 5.52866 23.4078C5.20104 24.2456 4.96492 25.1181 4.82349 26.0082C4.65016 27.0991 5.56179 28 6.66636 28L13.6878 28C16.3242 24.7692 17.4281 20.2969 16.6867 16.0224ZM14.5661 28C17.8422 24.8271 20.0621 20.9722 20.9276 17.1976C22.067 17.7815 23.1075 18.5643 24.0047 19.5147C25.0566 20.629 25.891 21.9519 26.4603 23.4078C26.7879 24.2456 27.0241 25.1181 27.1655 26.0082C27.3388 27.0991 26.4272 28 25.3226 28L14.5661 28Z" fill="white"/>
<path d="M16.3838 14.6545L16.4932 16.3844C17.0126 16.3516 17.4898 16.0871 17.7929 15.664C18.096 15.2409 18.1929 14.704 18.0569 14.2016L16.3838 14.6545ZM10.4088 6.48385L11.2969 4.99534C10.8593 4.73422 10.3289 4.67892 9.84681 4.84415C9.36472 5.00937 8.97977 5.37836 8.79431 5.85303L10.4088 6.48385ZM15.1367 11.5177L13.6103 12.3391V12.3391L15.1367 11.5177ZM21.1749 11.704L19.4632 11.9773C19.5785 12.6995 20.1347 13.2715 20.8532 13.4072C21.5718 13.5429 22.2982 13.2131 22.669 12.5827L21.1749 11.704ZM20.0049 8.19368L21.5314 7.37244V7.37244L20.0049 8.19368ZM13.5845 3.17241L12.8862 1.58596C12.217 1.88054 11.8045 2.56343 11.8554 3.29288C11.9062 4.02234 12.4093 4.64144 13.113 4.84037L13.5845 3.17241ZM16.6867 16.0224L18.3945 15.7262C18.2577 14.9371 17.5981 14.3445 16.7989 14.2927L16.6867 16.0224ZM11.6594 16.9134L10.9629 15.3262H10.9629L11.6594 16.9134ZM7.98429 19.5147L9.24472 20.7046L7.98429 19.5147ZM5.52866 23.4078L3.91436 22.7765H3.91436L5.52866 23.4078ZM4.82349 26.0082L3.11163 25.7362L4.82349 26.0082ZM6.66636 28L6.66636 26.2666H6.66636V28ZM13.6878 28V29.7333C14.2085 29.7333 14.7015 29.4993 15.0307 29.0959L13.6878 28ZM14.5661 28L13.3602 26.7549C12.8529 27.2461 12.6944 27.9959 12.9594 28.6504C13.2244 29.305 13.8599 29.7333 14.5661 29.7333V28ZM20.9276 17.1976L21.7181 15.655C21.2422 15.4111 20.6804 15.4005 20.1957 15.6263C19.711 15.8521 19.3576 16.289 19.2381 16.8102L20.9276 17.1976ZM24.0047 19.5147L25.2651 18.3248L24.0047 19.5147ZM26.4603 23.4078L28.0746 22.7765L26.4603 23.4078ZM27.1655 26.0082L25.4536 26.2802V26.2802L27.1655 26.0082ZM25.3226 28V29.7333V28ZM15.9994 16.4C16.165 16.4 16.3297 16.3947 16.4932 16.3844L16.2744 12.9246C16.1837 12.9304 16.092 12.9333 15.9994 12.9333V16.4ZM8.26604 8.66664C8.26604 12.9376 11.7284 16.4 15.9994 16.4V12.9333C13.643 12.9333 11.7327 11.0231 11.7327 8.66664H8.26604ZM8.79431 5.85303C8.4527 6.72731 8.26604 7.67725 8.26604 8.66664H11.7327C11.7327 8.11584 11.8362 7.59336 12.0232 7.11468L8.79431 5.85303ZM9.52065 7.97237C11.1302 8.93272 12.5649 10.3963 13.6103 12.3391L16.663 10.6963C15.3316 8.22216 13.4645 6.28862 11.2969 4.99534L9.52065 7.97237ZM13.6103 12.3391C14.0874 13.2256 14.4529 14.1552 14.7107 15.1074L18.0569 14.2016C17.7318 13.0007 17.2694 11.823 16.663 10.6963L13.6103 12.3391ZM22.8865 11.4307C22.6603 10.0138 22.2162 8.6454 21.5314 7.37244L18.4785 9.01491C18.9667 9.92229 19.2938 10.9165 19.4632 11.9773L22.8865 11.4307ZM21.5314 7.37244C19.9112 4.36098 17.2247 2.40025 14.0561 1.50445L13.113 4.84037C15.4757 5.50832 17.3491 6.91565 18.4785 9.01491L21.5314 7.37244ZM15.9994 0.933308C14.8953 0.933308 13.8409 1.16573 12.8862 1.58596L14.2828 4.75886C14.8058 4.52865 15.3853 4.39997 15.9994 4.39997V0.933308ZM23.7327 8.66664C23.7327 4.39564 20.2704 0.933308 15.9994 0.933308V4.39997C18.3558 4.39997 20.266 6.31023 20.266 8.66664H23.7327ZM22.669 12.5827C23.3453 11.4328 23.7327 10.0923 23.7327 8.66664H20.266C20.266 9.45762 20.0524 10.1934 19.6808 10.8253L22.669 12.5827ZM16.7989 14.2927C16.5314 14.2754 16.2632 14.2666 15.9945 14.2666V17.7333C16.1882 17.7333 16.3816 17.7396 16.5745 17.7521L16.7989 14.2927ZM15.9945 14.2666C14.2649 14.2666 12.5549 14.6277 10.9629 15.3262L12.3559 18.5007C13.5127 17.9931 14.7488 17.7333 15.9945 17.7333V14.2666ZM10.9629 15.3262C9.3713 16.0245 7.93181 17.0452 6.72387 18.3248L9.24472 20.7046C10.1406 19.7555 11.1987 19.0084 12.3559 18.5007L10.9629 15.3262ZM6.72387 18.3248C5.51612 19.6042 4.563 21.1177 3.91436 22.7765L7.14297 24.039C7.63292 22.786 8.34864 21.6538 9.24472 20.7046L6.72387 18.3248ZM3.91436 22.7765C3.54101 23.7313 3.27242 24.7243 3.11163 25.7362L6.53535 26.2802C6.65743 25.5119 6.86108 24.7599 7.14297 24.039L3.91436 22.7765ZM3.11163 25.7362C2.74143 28.0662 4.69379 29.7333 6.66636 29.7333V26.2666C6.58361 26.2666 6.53477 26.2324 6.52097 26.2179C6.5161 26.2127 6.52295 26.218 6.52931 26.2374C6.53241 26.2468 6.53446 26.2569 6.53524 26.2665C6.53603 26.2762 6.53518 26.2813 6.53535 26.2802L3.11163 25.7362ZM6.66636 29.7333L13.6878 29.7333V26.2666L6.66636 26.2666L6.66636 29.7333ZM14.9789 16.3186C15.6396 20.1284 14.6447 24.0858 12.3449 26.9041L15.0307 29.0959C18.0037 25.4527 19.2165 20.4654 18.3945 15.7262L14.9789 16.3186ZM15.7719 29.2451C19.2599 25.8671 21.6682 21.7234 22.6171 17.585L19.2381 16.8102C18.456 20.221 16.4245 23.7871 13.3602 26.7549L15.7719 29.2451ZM25.2651 18.3248C24.2348 17.2335 23.0361 16.3304 21.7181 15.655L20.1371 18.7402C21.0979 19.2325 21.9801 19.8951 22.7443 20.7046L25.2651 18.3248ZM28.0746 22.7765C27.426 21.1177 26.4729 19.6042 25.2651 18.3248L22.7443 20.7046C23.6403 21.6538 24.3561 22.786 24.846 24.039L28.0746 22.7765ZM28.8773 25.7362C28.7166 24.7243 28.448 23.7313 28.0746 22.7765L24.846 24.039C25.1279 24.7599 25.3315 25.5119 25.4536 26.2802L28.8773 25.7362ZM25.3226 29.7333C27.2952 29.7333 29.2475 28.0662 28.8773 25.7362L25.4536 26.2802C25.4538 26.2813 25.4529 26.2762 25.4537 26.2665C25.4545 26.2569 25.4566 26.2468 25.4597 26.2374C25.466 26.2181 25.4729 26.2127 25.468 26.2179C25.4542 26.2324 25.4054 26.2666 25.3226 26.2666V29.7333ZM14.5661 29.7333L25.3226 29.7333V26.2666L14.5661 26.2666V29.7333Z" fill="white" mask="url(#path-1-inside-1_2684_10847)"/>
</svg>