<svg width="265" height="333" viewBox="0 0 265 333" fill="none" xmlns="http://www.w3.org/2000/svg">
<g clip-path="url(#clip0_5986_16205)">
<path d="M265.261 319.06C223.563 327.566 179.168 309.692 155.845 271.19C126.156 222.209 141.779 158.438 190.76 128.749C214 114.655 240.576 110.791 265.261 115.851V98.7822C240.381 102.285 214.222 111.458 189.37 126.525C117.649 170.003 84.1797 245.977 114.619 296.209C140.278 338.547 203.158 349.083 265.261 325.287V319.088V319.06Z" fill="#292929"/>
<path d="M68.1961 18.1382C68.1961 18.1382 27.4708 22.7528 44.5949 66.2579C61.719 109.735 5.56541 144.261 0.645021 177.759C-2.16266 196.829 30.7233 220.319 77.4531 177.759C124.183 135.199 184.312 185.848 210.915 164.332C267.93 118.186 198.128 48.7447 143.725 113.571C96.4118 169.947 13.1545 202.277 39.0629 145.818C64.9714 89.3587 105.891 66.2301 102.055 43.5741C97.1068 14.58 68.1961 18.1382 68.1961 18.1382Z" fill="#292929"/>
<path d="M155.261 271.218C125.572 222.237 141.195 158.466 190.177 128.777C226.287 106.872 270.432 109.652 303.04 132.252V98.0317C268.18 94.1121 226.927 103.397 188.815 126.525C117.094 170.003 83.624 245.977 114.064 296.209C117.844 302.464 122.459 308.024 127.768 312.889H203.381C184.033 304.688 166.993 290.566 155.289 271.246L155.261 271.218Z" fill="#121212"/>
<path d="M155.262 270.857C134.635 236.859 135.886 195.717 154.984 163.804C151.564 163.109 148.062 162.47 144.531 161.886C104.835 204.307 90.8519 257.541 114.064 295.82C117.956 302.242 122.709 307.913 128.158 312.861H204.188C184.506 304.716 167.16 290.455 155.262 270.857Z" fill="#292929"/>
<path d="M227.456 107.708C228.623 109.793 229.568 111.989 230.319 114.269C255.866 110.905 281.886 117.243 303.068 131.921V97.7009C279.773 95.0878 253.642 98.368 227.483 107.736L227.456 107.708Z" fill="#292929"/>
<path d="M155.262 270.857C134.635 236.859 135.886 195.717 154.984 163.804C151.564 163.109 148.062 162.47 144.531 161.886C104.835 204.307 90.8519 257.541 114.064 295.82C117.956 302.242 122.709 307.913 128.158 312.861H204.188C184.506 304.716 167.16 290.455 155.262 270.857Z" fill="#292929"/>
<path d="M227.456 107.708C228.623 109.793 229.568 111.989 230.319 114.269C255.866 110.905 281.886 117.243 303.068 131.921V97.7009C279.773 95.0878 253.642 98.368 227.483 107.736L227.456 107.708Z" fill="#292929"/>
</g>
<defs>
<clipPath id="clip0_5986_16205">
<rect width="265" height="333" fill="white"/>
</clipPath>
</defs>
</svg>
