<svg xmlns="http://www.w3.org/2000/svg" width="59" height="25" viewBox="0 0 59 25" fill="none">
  <g clip-path="url(#clip0_5154_16495)">
    <path d="M8.10096 2.66146C8.3881 4.35482 5.32525 6.08558 3.386 10.3034C1.44675 14.5233 7.67857 12.1048 11.22 7.89322C15.292 3.04792 20.5167 8.2402 16.2491 11.6872C14.2579 13.2953 9.75723 9.50762 6.2595 12.6907C2.76386 15.8717 0.302345 14.1161 0.5125 12.6907C0.880791 10.187 5.08389 7.60649 3.80215 4.3569C2.52041 1.10523 5.5687 0.760329 5.5687 0.760329C5.5687 0.760329 7.73267 0.494378 8.10096 2.66146Z" fill="white"/>
    <path d="M34.4596 18.9119C33.8749 20.331 31.4737 19.9758 30.5478 22.656C29.6219 25.3363 27.1728 25.0808 26.6235 23.8777C25.9931 22.4961 27.4017 19.9695 25.7912 18.6252C24.1807 17.2809 25.6851 16.2233 25.6851 16.2233C25.6851 16.2233 26.7484 15.4608 27.5661 16.4976C28.2049 17.3079 27.0917 19.0969 27.2852 21.8769C27.3996 23.5058 29.3243 23.7323 30.2086 22.4898C30.8349 21.6109 30.4459 19.6973 30.7163 18.3572C31.4654 14.636 35.7122 15.8681 34.4575 18.9099L34.4596 18.9119Z" fill="white"/>
    <path d="M28.4441 9.76992C26.1657 6.01544 19.9651 5.6082 14.5947 8.85779C9.22641 12.1074 6.7212 17.7858 8.99961 21.5403C11.278 25.2948 17.4786 25.702 22.849 22.4525C28.2173 19.2029 30.7225 13.5244 28.4441 9.76992ZM22.6389 22.1055C19.0704 24.2663 14.4262 23.1277 12.2622 19.5665C10.0982 16.0031 11.2385 11.3656 14.8049 9.20477C18.3733 7.04392 23.0176 8.18253 25.1815 11.7438C27.3455 15.3071 26.2052 19.9446 22.6389 22.1055Z" fill="white"/>
    <path d="M17.0001 9.69889C16.8565 9.98146 17.0521 10.3201 17.3705 10.3347H17.8948C18.6689 10.37 18.9976 11.0868 18.9997 11.8597C19.0039 12.9838 17.589 14.2014 16.559 14.4071C14.8112 14.7561 13.9518 13.6902 14.1079 12.7532C14.2848 11.6852 14.9423 10.69 14.9652 10.6505L16.8087 7.57543C16.8961 7.41753 17.0917 7.35727 17.2519 7.4383C17.3934 7.50895 17.4662 7.66893 17.4267 7.82269L17.0022 9.69889H17.0001Z" fill="white"/>
    <path d="M37.0589 10.3699C33.7921 9.865 30.6107 7.42365 33.3822 7.10575C36.1538 6.78786 37.9952 7.81842 38.7755 7.14315C39.7763 6.28089 38.9649 5.25449 38.9649 5.25449C38.9649 5.25449 37.8392 3.80007 36.5678 5.46849C35.721 6.57801 34.2707 6.35153 32.9827 6.24972C34.2437 4.69557 35.2632 3.67332 35.0926 2.66146C34.7243 0.494378 32.5603 0.760329 32.5603 0.760329C32.5603 0.760329 29.512 1.10523 30.7938 4.3569C32.0755 7.60857 27.8724 10.1891 27.5041 12.6907C27.3626 13.6548 28.4384 14.7664 30.2299 14.409C31.2599 14.2033 32.6748 12.9858 32.6706 11.8617C32.6685 11.0888 32.3398 10.372 31.5657 10.3366H31.0414C30.7251 10.3221 30.5274 9.98343 30.671 9.70085C30.8978 9.2583 31.135 8.8469 31.3785 8.46044C31.7405 8.7908 32.2815 9.09623 33.0493 9.3227C35.773 10.1247 35.2258 13.6091 36.6719 14.1285C39.7722 15.2422 40.8146 10.9496 37.0568 10.3699H37.0589Z" fill="white"/>
    <path d="M31.6446 11.8847C31.2201 14.2886 28.3695 14.5026 27.4831 12.6098C26.5967 10.717 28.4403 11.2136 28.3425 8.7452C28.1656 4.53777 23.7378 8.40652 23.7378 8.40652L23.6941 8.46055C23.5027 8.86155 23.3321 9.14205 23.047 9.6968C22.9034 9.97938 23.099 10.318 23.4174 10.3326H23.9417C24.7158 10.3679 25.0445 11.0847 25.0466 11.8577C25.0507 12.9817 23.6358 14.1993 22.6059 14.405C20.8144 14.7644 19.7386 13.6507 19.8801 12.6867C20.2484 10.183 23.6088 10.1352 22.1107 6.97912C21.1327 4.91592 23.0054 4.51907 23.0054 4.51907C23.0054 4.51907 24.0624 4.27182 24.4536 5.55794C24.5597 5.91116 24.7969 5.94024 24.154 7.41544C27.0732 6.05452 27.4228 6.06491 28.022 6.15841C29.5722 6.39735 29.2039 10.1144 29.258 10.1144C29.3121 10.1144 32.0732 9.47864 31.6488 11.8826L31.6446 11.8847Z" fill="white"/>
    <path d="M51.1329 10.3366H50.6086C50.2923 10.3221 50.0946 9.98341 50.2382 9.70084C52.1775 5.91727 54.9324 4.27377 54.6577 2.66352C54.2915 0.494362 52.1275 0.760313 52.1275 0.760313C52.1275 0.760313 49.0792 1.10522 50.361 4.35688C50.7147 5.25447 50.6502 6.10011 50.3631 6.90835C50.3527 6.88757 50.3443 6.8668 50.3319 6.84602C49.4351 5.36874 46.9943 5.20876 44.8824 6.48657C42.7704 7.76646 41.7842 10 42.681 11.4773C43.4425 12.7323 45.3152 13.0335 47.1566 12.3146C47.1192 12.4414 47.0901 12.566 47.0713 12.6907C46.9298 13.6548 48.0056 14.7664 49.7971 14.409C50.8271 14.2033 52.242 12.9857 52.2378 11.8617C52.2357 11.0888 51.907 10.3719 51.1329 10.3366ZM48.0097 11.6394C46.6406 12.4684 44.8574 12.0321 44.0272 10.6649C43.197 9.29776 43.6339 7.51713 45.0031 6.68811C46.3722 5.85909 48.1554 6.29542 48.9856 7.66257C49.8158 9.02973 49.3789 10.8104 48.0097 11.6394Z" fill="white"/>
    <path d="M41.8986 10.7086C41.1683 11.1491 40.5087 11.5542 39.9178 11.8347C40.0135 12.0903 40.1945 12.377 40.7126 12.6575C41.2723 12.9629 41.9319 13.0627 42.5478 12.8965C43.3343 12.6866 43.7151 12.1755 43.8733 11.5875L44.1292 11.5584L43.9731 11.9781C43.7047 12.5702 43.3864 12.9339 43.2074 13.1125C42.4292 13.8896 41.0851 13.8252 39.7992 13.4284C38.5153 13.0315 37.6165 12.3271 37.2024 11.1969C37.2024 11.1927 37.1982 11.1885 37.1962 11.1844C37.192 11.1719 37.1837 11.1595 37.1795 11.1449H37.1837C36.599 9.68218 37.5873 7.67301 39.5474 6.48454C41.6593 5.20465 44.1001 5.36671 44.9969 6.84399C45.8937 8.32126 44.0085 9.42662 41.8966 10.7065L41.8986 10.7086ZM43.17 7.95558C43.5216 7.74365 43.5882 7.24915 43.2927 6.9645C42.3189 6.02744 40.8021 5.82174 39.5911 6.55518C38.3801 7.28863 37.862 8.72642 38.2428 10.0229C38.3593 10.4177 38.8275 10.586 39.1791 10.372L43.17 7.95558Z" fill="white"/>
    <path d="M58.1656 18.6354C57.3312 19.1279 42.893 18.997 36.9732 17.7545C36.7173 17.7004 36.451 17.6443 36.1742 17.5924C35.7269 18.222 35.2816 18.9242 34.8717 19.7242C34.7281 20.0067 34.9237 20.3454 35.2421 20.36H35.7664C36.5405 20.3953 36.8692 21.1121 36.8713 21.885C36.8755 23.0091 35.4606 24.2266 34.4306 24.4323C32.6391 24.7918 31.5633 23.6781 31.7048 22.714C31.863 21.6419 32.7223 20.5573 33.5546 19.4104C32.9429 19.2608 32.3186 18.8328 32.0461 18.4027C31.3324 17.2787 31.8109 16.2564 32.5038 16.1027C33.2487 15.9364 34.1747 16.2107 35.136 16.4683C35.2941 15.8014 35.2816 15.1095 34.9965 14.3823C33.7148 11.1306 36.7631 10.7857 36.7631 10.7857C36.7631 10.7857 38.9271 10.5198 39.2954 12.6869C39.4847 13.8068 38.2113 14.9433 36.7652 16.8049C36.8422 16.8132 36.9192 16.8195 36.9941 16.8236C37.7327 16.861 55.2858 16.7114 55.8893 16.1588C57.7682 14.4384 58.8023 16.4185 58.8023 16.4185C58.8023 16.4185 59.5493 17.8189 58.1697 18.6354H58.1656Z" fill="white"/>
    <path d="M20.1672 4.42299C19.3598 5.40368 17.9949 5.61561 17.1189 4.89463C16.2429 4.17574 16.1888 2.79819 16.9982 1.8175C17.8055 0.836805 19.1705 0.624875 20.0465 1.34585C20.9225 2.06475 20.9766 3.44229 20.1672 4.42299Z" fill="white"/>
  </g>
  <defs>
    <clipPath id="clip0_5154_16495">
      <rect width="58.5" height="24" fill="white" transform="translate(0.5 0.75)"/>
    </clipPath>
  </defs>
</svg>