<svg xmlns="http://www.w3.org/2000/svg" width="52" height="22" viewBox="0 0 52 22" fill="none">
  <g clip-path="url(#clip0_6045_17653)">
    <path d="M6.75641 2.36509C7.01164 3.8703 4.28911 5.40876 2.56533 9.15793C0.841557 12.9089 6.38095 10.7592 9.52888 7.01554C13.1484 2.70861 17.7927 7.32397 13.9992 10.3879C12.2292 11.8174 8.22865 8.45057 5.11956 11.28C2.01232 14.1076 -0.175693 12.547 0.0111108 11.28C0.338481 9.0545 4.07456 6.76067 2.93524 3.87215C1.79592 0.98178 4.50551 0.675197 4.50551 0.675197C4.50551 0.675197 6.42904 0.438796 6.75641 2.36509Z" fill="#616FED"/>
    <path d="M30.1864 16.8098C29.6667 18.0712 27.5323 17.7554 26.7093 20.1378C25.8863 22.5203 23.7093 22.2931 23.2211 21.2238C22.6606 19.9956 23.9128 17.7498 22.4812 16.5549C21.0497 15.3599 22.3869 14.4199 22.3869 14.4199C22.3869 14.4199 23.332 13.7421 24.0589 14.6637C24.6267 15.384 23.6372 16.9741 23.8092 19.4453C23.9109 20.8932 25.6218 21.0945 26.4078 19.9901C26.9645 19.2089 26.6187 17.5079 26.8591 16.3166C27.5249 13.0089 31.2999 14.1041 30.1846 16.8079L30.1864 16.8098Z" fill="#616FED"/>
    <path d="M24.8394 8.68459C22.8141 5.34728 17.3025 4.98529 12.5288 7.87381C7.75696 10.7623 5.5301 15.8099 7.55536 19.1472C9.58061 22.4845 15.0923 22.8465 19.8659 19.958C24.6378 17.0694 26.8646 12.0219 24.8394 8.68459ZM19.6791 19.6495C16.5072 21.5703 12.379 20.5582 10.4554 17.3926C8.53192 14.2252 9.54547 10.103 12.7156 8.18224C15.8876 6.26148 20.0158 7.27357 21.9393 10.4391C23.8628 13.6065 22.8493 17.7288 19.6791 19.6495Z" fill="#616FED"/>
    <path d="M14.667 8.62145C14.5394 8.87263 14.7132 9.17367 14.9962 9.1866H15.4623C16.1503 9.21799 16.4426 9.85517 16.4444 10.5422C16.4481 11.5414 15.1904 12.6236 14.2749 12.8065C12.7213 13.1168 11.9574 12.1693 12.0961 11.3364C12.2533 10.3871 12.8378 9.50241 12.8581 9.46732L14.4968 6.73394C14.5745 6.59357 14.7484 6.54001 14.8908 6.61204C15.0166 6.67484 15.0813 6.81705 15.0461 6.95372L14.6688 8.62145H14.667Z" fill="#616FED"/>
    <path d="M32.4966 9.21703C29.5928 8.76823 26.7649 6.59815 29.2285 6.31557C31.692 6.033 33.3289 6.94905 34.0225 6.34882C34.9121 5.58236 34.1908 4.67 34.1908 4.67C34.1908 4.67 33.1902 3.37719 32.0601 4.86023C31.3073 5.84647 30.0182 5.64516 28.8733 5.55466C29.9942 4.17319 30.9004 3.26453 30.7488 2.36509C30.4214 0.438796 28.4979 0.675197 28.4979 0.675197C28.4979 0.675197 25.7883 0.98178 26.9276 3.87215C28.0669 6.76252 24.3309 9.05635 24.0035 11.28C23.8777 12.1369 24.8339 13.125 26.4264 12.8074C27.3419 12.6245 28.5996 11.5422 28.5959 10.5431C28.5941 9.85605 28.3018 9.21887 27.6138 9.18748H27.1477C26.8666 9.17455 26.6909 8.87351 26.8185 8.62233C27.0201 8.22894 27.2309 7.86326 27.4473 7.51974C27.7692 7.8134 28.25 8.08489 28.9325 8.2862C31.3536 8.99909 30.8672 12.0963 32.1526 12.558C34.9084 13.548 35.835 9.73231 32.4948 9.21703H32.4966Z" fill="#616FED"/>
    <path d="M27.6841 10.5641C27.3068 12.701 24.7729 12.8912 23.985 11.2087C23.1971 9.5262 24.8358 9.9676 24.7489 7.77351C24.5916 4.03357 20.6558 7.47247 20.6558 7.47247L20.617 7.52049C20.4468 7.87693 20.2951 8.12626 20.0418 8.61938C19.9141 8.87056 20.088 9.1716 20.371 9.18453H20.8371C21.5251 9.21592 21.8173 9.8531 21.8192 10.5401C21.8229 11.5393 20.5652 12.6216 19.6497 12.8044C18.0572 13.1239 17.101 12.134 17.2268 11.277C17.5541 9.05155 20.5411 9.00907 19.2095 6.20366C18.3402 4.3697 20.0048 4.01695 20.0048 4.01695C20.0048 4.01695 20.9443 3.79717 21.2921 4.94039C21.3864 5.25436 21.5972 5.28022 21.0257 6.5915C23.6206 5.3818 23.9314 5.39103 24.464 5.47414C25.8419 5.68653 25.5146 8.9906 25.5627 8.9906C25.6107 8.9906 28.0651 8.42546 27.6878 10.5623L27.6841 10.5641Z" fill="#616FED"/>
    <path d="M45.0069 9.18746H44.5408C44.2596 9.17453 44.0839 8.87349 44.2116 8.62232C45.9353 5.25914 48.3841 3.79826 48.14 2.36693C47.8145 0.438782 45.8909 0.675183 45.8909 0.675183C45.8909 0.675183 43.1814 0.981766 44.3207 3.87214C44.6351 4.66999 44.5778 5.42167 44.3225 6.14011C44.3133 6.12164 44.3059 6.10317 44.2948 6.0847C43.4976 4.77157 41.3281 4.62936 39.4508 5.76519C37.5735 6.90287 36.6969 8.88827 37.494 10.2014C38.1709 11.3169 39.8355 11.5847 41.4724 10.9457C41.4391 11.0584 41.4132 11.1692 41.3965 11.28C41.2708 12.1369 42.227 13.125 43.8195 12.8073C44.735 12.6245 45.9927 11.5422 45.989 10.5431C45.9871 9.85603 45.6949 9.21886 45.0069 9.18746ZM42.2307 10.3455C41.0137 11.0824 39.4286 10.6945 38.6907 9.47927C37.9527 8.26402 38.3411 6.68124 39.5581 5.94434C40.7751 5.20743 42.3602 5.59528 43.0981 6.81052C43.8361 8.02577 43.4477 9.60855 42.2307 10.3455Z" fill="#616FED"/>
    <path d="M36.7986 9.51831C36.1494 9.90985 35.5631 10.27 35.0378 10.5193C35.1229 10.7465 35.2838 11.0014 35.7443 11.2507C36.2419 11.5222 36.8282 11.6108 37.3756 11.4631C38.0748 11.2765 38.4132 10.8222 38.5538 10.2995L38.7813 10.2737L38.6426 10.6468C38.404 11.1731 38.121 11.4963 37.9619 11.6552C37.2702 12.3459 36.0754 12.2886 34.9324 11.9359C33.7912 11.5831 32.9922 10.957 32.6241 9.95233C32.6241 9.94864 32.6204 9.94494 32.6186 9.94125C32.6149 9.93017 32.6075 9.91909 32.6038 9.90616H32.6075C32.0878 8.60595 32.9663 6.82002 34.7086 5.7636C36.5859 4.62592 38.7554 4.76998 39.5525 6.08311C40.3497 7.39625 38.674 8.37879 36.7967 9.51647L36.7986 9.51831ZM37.9286 7.07119C38.2412 6.88281 38.3004 6.44325 38.0378 6.19023C37.1722 5.35729 35.8239 5.17445 34.7474 5.8264C33.671 6.47834 33.2104 7.75639 33.5489 8.90884C33.6525 9.25975 34.0686 9.40935 34.3812 9.21912L37.9286 7.07119Z" fill="#616FED"/>
    <path d="M51.2583 16.5648C50.5166 17.0025 37.6826 16.8862 32.4207 15.7817C32.1932 15.7337 31.9564 15.6839 31.7104 15.6377C31.3128 16.1973 30.917 16.8215 30.5526 17.5326C30.425 17.7838 30.5989 18.0848 30.8818 18.0977H31.3479C32.036 18.1291 32.3282 18.7663 32.33 19.4533C32.3337 20.4525 31.076 21.5348 30.1605 21.7176C28.5681 22.0371 27.6118 21.0472 27.7376 20.1903C27.8782 19.2373 28.642 18.2732 29.3819 17.2537C28.8381 17.1207 28.2832 16.7403 28.0409 16.358C27.4065 15.3588 27.8319 14.4501 28.4478 14.3135C29.11 14.1657 29.933 14.4095 30.7875 14.6385C30.9281 14.0457 30.917 13.4307 30.6636 12.7843C29.5243 9.89389 32.2339 9.58731 32.2339 9.58731C32.2339 9.58731 34.1574 9.35091 34.4848 11.2772C34.6531 12.2727 33.5211 13.2829 32.2357 14.9377C32.3041 14.9451 32.3726 14.9507 32.4392 14.9543C33.0958 14.9876 48.6985 14.8546 49.2349 14.3633C50.905 12.8341 51.8243 14.5942 51.8243 14.5942C51.8243 14.5942 52.4882 15.839 51.262 16.5648H51.2583Z" fill="#616FED"/>
    <path d="M17.4818 3.93198C16.7642 4.80371 15.5509 4.99209 14.7722 4.35122C13.9936 3.7122 13.9455 2.48772 14.6649 1.61599C15.3826 0.74426 16.5959 0.555878 17.3745 1.19675C18.1532 1.83577 18.2013 3.06025 17.4818 3.93198Z" fill="#616FED"/>
  </g>
  <defs>
    <clipPath id="clip0_6045_17653">
      <rect width="52" height="21.3333" fill="white" transform="translate(0 0.666016)"/>
    </clipPath>
  </defs>
</svg>