<svg width="28" height="28" viewBox="0 0 28 28" fill="none" xmlns="http://www.w3.org/2000/svg">
<path id="Union" fill-rule="evenodd" clip-rule="evenodd" d="M16.9663 8.76006C17.9545 12.4479 15.7659 16.2386 12.078 17.2268C8.39014 18.215 4.59945 16.0264 3.61128 12.3385C2.62311 8.65064 4.81167 4.85994 8.49956 3.87178C12.1874 2.88361 15.9781 5.07217 16.9663 8.76006ZM16.4567 18.1464C15.4205 18.9886 14.1941 19.6312 12.8209 19.9991C7.60187 21.3976 2.23738 18.3004 0.838956 13.0814C-0.559471 7.86237 2.53772 2.49788 7.75672 1.09945C12.9757 -0.298973 18.3402 2.79821 19.7386 8.01722C20.5035 10.8718 19.9235 13.7698 18.387 16.0387C18.4399 16.0789 18.4906 16.1233 18.5387 16.1718L27.0809 24.7904C27.6388 25.3533 27.6347 26.2619 27.0718 26.8198C26.5089 27.3778 25.6003 27.3737 25.0424 26.8108L16.5002 18.1922C16.4853 18.1772 16.4708 18.1619 16.4567 18.1464Z" fill="white"/>
</svg>
