<svg width="22" height="22" viewBox="0 0 22 22" fill="none" xmlns="http://www.w3.org/2000/svg">
 <g transform="scale(1.4)">
<path id="Subtract" fill-rule="evenodd" clip-rule="evenodd" d="M11.7875 0.5C12.4399 0.5 12.9688 1.02886 12.9688 1.68125V3.39493C12.9688 4.44731 14.2411 4.97435 14.9853 4.2302L16.1972 3.01832C16.6585 2.55702 17.4064 2.55702 17.8677 3.01832L18.9814 4.13202C19.4427 4.59332 19.4427 5.34125 18.9814 5.80256L17.7692 7.01473C17.0251 7.75888 17.5521 9.03125 18.6045 9.03125H20.3188C20.9711 9.03125 21.5 9.56012 21.5 10.2125V11.7875C21.5 12.4399 20.9711 12.9688 20.3188 12.9688H18.6051C17.5527 12.9688 17.0257 14.2411 17.7698 14.9853L18.9816 16.197C19.4429 16.6583 19.4429 17.4063 18.9816 17.8676L17.8679 18.9813C17.4066 19.4426 16.6586 19.4426 16.1973 18.9813L14.9853 17.7692C14.2411 17.0251 12.9688 17.5521 12.9688 18.6045V20.3188C12.9688 20.9711 12.4399 21.5 11.7875 21.5H10.2125C9.56012 21.5 9.03125 20.9711 9.03125 20.3188V18.6045C9.03125 17.5521 7.75888 17.0251 7.01473 17.7692L5.80268 18.9813C5.34137 19.4426 4.59345 19.4426 4.13214 18.9813L3.01845 17.8676C2.55714 17.4063 2.55714 16.6583 3.01845 16.197L4.2302 14.9853C4.97435 14.2411 4.44731 12.9688 3.39493 12.9688H1.68125C1.02886 12.9688 0.5 12.4399 0.5 11.7875V10.2125C0.5 9.56012 1.02886 9.03125 1.68125 9.03125H3.39552C4.44791 9.03125 4.97494 7.75888 4.2308 7.01473L3.01862 5.80256C2.55731 5.34125 2.55731 4.59332 3.01862 4.13202L4.13231 3.01832C4.59362 2.55702 5.34155 2.55702 5.80285 3.01832L7.01473 4.2302C7.75888 4.97435 9.03125 4.44731 9.03125 3.39493V1.68125C9.03125 1.02886 9.56012 0.5 10.2125 0.5H11.7875ZM11 14.5431C12.9571 14.5431 14.5437 12.9565 14.5437 10.9993C14.5437 9.04216 12.9571 7.45557 11 7.45557C9.0428 7.45557 7.45621 9.04216 7.45621 10.9993C7.45621 12.9565 9.0428 14.5431 11 14.5431Z" fill="white"/>
 </g>
</svg>
