<svg xmlns="http://www.w3.org/2000/svg" width="380" height="365" viewBox="0 0 340 325" fill="none">
<path fill-rule="evenodd" clip-rule="evenodd" d="M10 0H192.134C192.442 2.78035 193.222 5.92522 194.609 9.48155C201.176 26.3183 190.525 41.0258 180.582 54.7553C174.298 63.4327 168.297 71.7194 167.105 79.906C165.347 91.9507 185.928 106.787 215.173 79.906C228.074 68.0479 242.606 67.6461 256.25 69.734C240.01 87.5968 230.891 108.413 231.001 127.39C231 127.578 231 127.766 231 127.954C230.964 137.439 233.219 146.48 238.022 154.485C240.382 158.428 243.263 161.933 246.578 165H247.317C268.04 183.341 304.854 185.073 340 169.034V315C340 320.523 335.523 325 330 325H10C4.47716 325 0 320.523 0 315V10C0 4.47715 4.47715 0 10 0ZM294 164H293.095C307.657 170.457 324.401 171.491 340 166.288V42.9726C331.112 39.9112 321.601 38.803 312.159 39.8219C311.741 39.8691 311.324 39.9204 310.906 39.9758C313.894 49.4667 311.058 61.329 298.697 71.4256C291.73 77.112 281.09 74.818 268.928 72.1958L268.927 72.1956L268.927 72.1954L268.921 72.1941C267.201 71.8234 265.451 71.4461 263.677 71.084C254.05 87.2201 251.684 107.112 257.889 125.393C259.342 129.561 261.238 133.641 263.592 137.569C270.986 149.901 281.768 158.875 294 164ZM340 28.2005V10C340 4.47715 335.523 0 330 0H230.375C229.022 5.82443 223.896 12.064 217.355 20.0265C209.298 29.8335 199.094 42.2542 191.147 59.7321C174.933 95.392 227.038 74.9723 256.648 39.365C277.074 14.7997 300.97 20.7599 309.114 35.7542C309.22 35.716 309.327 35.6779 309.434 35.64C309.295 35.3633 309.15 35.0893 309 34.8184L309.017 34.8358C319.508 31.0459 329.992 28.845 340 28.2005Z" fill="#1d1d1d"/>
</svg>