<svg xmlns="http://www.w3.org/2000/svg" width="32" height="29" viewBox="0 0 32 29" fill="none">
<g clip-path="url(#clip0_2666_3799)">
<path d="M27.2648 11.8339C27.3477 12.1449 27.1183 12.4249 26.8316 12.3627C22.9513 11.473 6.78662 8.56739 5.47407 9.25179C3.70915 10.1788 4.60754 12.2134 4.60754 12.2134C4.60754 12.2134 5.85 15.0879 8.27119 12.9849C10.6924 10.8819 28.1186 14.951 30.3996 14.6523C31.2789 14.5341 31.9097 13.1964 31.0432 11.5476C30.5462 10.6019 29.0552 9.54422 28.0804 9.84286C27.4114 10.0482 26.8953 10.5584 27.0992 11.3174L27.2585 11.8276L27.2648 11.8339Z" fill="#616FED"/>
<path d="M23.0661 17.359C23.1489 17.6701 22.9196 17.9501 22.6328 17.8879C18.7526 16.9981 2.58789 14.0925 1.27534 14.7769C-0.489582 15.704 0.408809 17.7385 0.408809 17.7385C0.408809 17.7385 1.65127 20.613 4.07246 18.51C6.49366 16.4071 23.9199 20.4761 26.2009 20.1775C27.0802 20.0593 27.711 18.7216 26.8444 17.0728C26.3475 16.1271 24.8565 15.0694 23.8817 15.368C23.2127 15.5733 22.6966 16.0835 22.9004 16.8426L23.0597 17.3528L23.0661 17.359Z" fill="#616FED"/>
<path d="M12.0431 12.2756C11.3295 13.4765 10.5649 14.6959 9.80666 15.8843C7.06052 20.1649 4.31437 24.1096 3.95119 25.9201C3.63899 27.4756 5.34019 29.3795 8.35395 28.9315C10.087 28.6764 12.5401 26.8036 12.6229 24.9744C12.6802 23.7176 12.1896 22.523 10.9026 22.4048L10.0297 22.3612C9.50083 22.3115 9.20136 21.7453 9.4626 21.2973C10.2144 20.0218 11.2594 18.429 12.4381 16.6745" fill="#616FED"/>
<path d="M12.4124 16.7244C13.126 15.5235 13.8906 14.3041 14.6488 13.1157C17.395 8.83507 20.1411 4.89042 20.5043 3.07987C20.8165 1.52441 19.1153 -0.379475 16.1015 0.0684971C14.3685 0.323593 11.9154 2.19637 11.8326 4.02559C11.7752 5.2824 12.2659 6.47699 13.5529 6.59521L14.4258 6.63876C14.9547 6.68854 15.2541 7.25472 14.9929 7.7027C14.241 8.97817 13.1961 10.571 12.0174 12.3255" fill="#616FED"/>
<path d="M19.5934 12.2756C18.8798 13.4765 18.1152 14.6959 17.357 15.8843C14.6108 20.1649 11.8647 24.1096 11.5015 25.9201C11.1893 27.4756 12.8905 29.3795 15.9042 28.9315C17.6373 28.6764 20.0904 26.8036 20.1732 24.9744C20.2305 23.7176 19.7399 22.523 18.4529 22.4048L17.58 22.3612C17.0511 22.3115 16.7517 21.7453 17.0129 21.2973C17.7647 20.0218 18.8097 18.429 19.9884 16.6745" fill="#616FED"/>
<path d="M19.9627 16.7244C20.6763 15.5235 21.4409 14.3041 22.1991 13.1157C24.9453 8.83507 27.6914 4.89042 28.0546 3.07987C28.3668 1.52441 26.6656 -0.379475 23.6518 0.0684971C21.9188 0.323593 19.4657 2.19637 19.3829 4.02559C19.3255 5.2824 19.8162 6.47699 21.1032 6.59521L21.9761 6.63876C22.505 6.68854 22.8044 7.25472 22.5432 7.7027C21.7913 8.97817 20.7464 10.571 19.5677 12.3255" fill="#616FED"/>
</g>
<defs>
<clipPath id="clip0_2666_3799">
<rect width="31.278" height="29" fill="white" transform="translate(0.179199)"/>
</clipPath>
</defs>
</svg>