<svg xmlns="http://www.w3.org/2000/svg" width="175" height="195" viewBox="0 0 175 195" fill="none">
  <mask id="path-1-inside-1_5713_15392" fill="white">
    <path fill-rule="evenodd" clip-rule="evenodd" d="M33.0844 17L23.2694 0L13.4545 17H10C4.47715 17 0 21.4771 0 27V185C0 190.523 4.47715 195 10 195H165C170.523 195 175 190.523 175 185V27C175 21.4772 170.523 17 165 17H33.0844Z"/>
  </mask>
  <path fill-rule="evenodd" clip-rule="evenodd" d="M33.0844 17L23.2694 0L13.4545 17H10C4.47715 17 0 21.4771 0 27V185C0 190.523 4.47715 195 10 195H165C170.523 195 175 190.523 175 185V27C175 21.4772 170.523 17 165 17H33.0844Z" fill="#0D0D0D"/>
  <path d="M23.2694 0L24.1354 -0.5L23.2694 -2L22.4034 -0.5L23.2694 0ZM33.0844 17L32.2183 17.5L32.507 18H33.0844V17ZM13.4545 17V18H14.0318L14.3205 17.5L13.4545 17ZM22.4034 0.5L32.2183 17.5L33.9504 16.5L24.1354 -0.5L22.4034 0.5ZM14.3205 17.5L24.1354 0.5L22.4034 -0.5L12.5884 16.5L14.3205 17.5ZM10 18H13.4545V16H10V18ZM1 27C1 22.0294 5.02944 18 10 18V16C3.92487 16 -1 20.9249 -1 27H1ZM1 185V27H-1V185H1ZM10 194C5.02944 194 1 189.971 1 185H-1C-1 191.075 3.92487 196 10 196V194ZM165 194H10V196H165V194ZM174 185C174 189.971 169.971 194 165 194V196C171.075 196 176 191.075 176 185H174ZM174 27V185H176V27H174ZM165 18C169.971 18 174 22.0294 174 27H176C176 20.9249 171.075 16 165 16V18ZM33.0844 18H165V16H33.0844V18Z" fill="#1B1B1B" mask="url(#path-1-inside-1_5713_15392)"/>
</svg>