<svg xmlns="http://www.w3.org/2000/svg" width="146" height="61" viewBox="0 0 146 61" fill="none">
  <g clip-path="url(#clip0_6044_17415)">
    <path d="M18.9699 5.48924C19.6865 9.7154 12.0425 14.0349 7.20267 24.5614C2.36283 35.0931 17.9157 29.0572 26.7542 18.5463C36.9168 6.45374 49.9563 19.4122 39.3055 28.015C34.3359 32.0285 23.1035 22.5754 14.3741 30.5195C5.64998 38.4585 -0.493293 34.0768 0.0311956 30.5195C0.950349 24.271 11.4401 17.8307 8.24126 9.72059C5.0424 1.60532 12.6501 0.744529 12.6501 0.744529C12.6501 0.744529 18.0508 0.0807872 18.9699 5.48924Z" fill="#FFE045"/>
    <path d="M84.7543 46.0485C83.2951 49.5902 77.3024 48.7034 74.9915 55.3927C72.6807 62.082 66.5685 61.4442 65.1976 58.4418C63.6241 54.9934 67.1398 48.6879 63.1204 45.3329C59.1011 41.9779 62.8556 39.3385 62.8556 39.3385C62.8556 39.3385 65.5092 37.4354 67.55 40.023C69.1442 42.0453 66.366 46.51 66.849 53.4481C67.1346 57.5136 71.9381 58.0788 74.1451 54.9779C75.7081 52.7844 74.7371 48.0086 75.4122 44.6639C77.2816 35.3768 87.8804 38.4518 84.7491 46.0433L84.7543 46.0485Z" fill="#FFE045"/>
    <path d="M69.7409 23.2318C64.0546 13.8617 48.5796 12.8453 35.1766 20.9554C21.7787 29.0655 15.5264 43.2374 21.2127 52.6076C26.899 61.9777 42.374 62.9941 55.777 54.884C69.1749 46.7739 75.4272 32.602 69.7409 23.2318ZM55.2526 54.018C46.3466 59.4109 34.7559 56.5693 29.3553 47.6814C23.9546 38.7883 26.8003 27.2143 35.7011 21.8214C44.607 16.4285 56.1977 19.2701 61.5983 28.158C66.999 37.0511 64.1533 48.6251 55.2526 54.018Z" fill="#FFE045"/>
    <path d="M41.1805 23.0558C40.8222 23.761 41.3103 24.6062 42.1048 24.6425H43.4135C45.3452 24.7307 46.1657 26.5197 46.1709 28.4487C46.1813 31.254 42.6501 34.2927 40.0796 34.8061C35.7175 35.6772 33.5728 33.0171 33.9623 30.6784C34.4037 28.0131 36.0446 25.5292 36.1018 25.4307L40.7027 17.7562C40.9208 17.3621 41.409 17.2117 41.8088 17.414C42.162 17.5903 42.3437 17.9896 42.245 18.3733L41.1857 23.0558H41.1805Z" fill="#FFE045"/>
    <path d="M91.2404 24.7274C83.0874 23.4673 75.1474 17.3744 82.0644 16.581C88.9814 15.7876 93.5772 18.3596 95.5246 16.6743C98.0224 14.5223 95.9971 11.9607 95.9971 11.9607C95.9971 11.9607 93.1877 8.33088 90.0148 12.4948C87.9013 15.2639 84.2818 14.6986 81.0674 14.4446C84.2143 10.5658 86.7589 8.01457 86.333 5.48924C85.4139 0.0807873 80.0132 0.744529 80.0132 0.744529C80.0132 0.744529 72.4055 1.60532 75.6044 9.72059C78.8032 17.8359 68.3135 24.2762 67.3943 30.5195C67.0412 32.9256 69.726 35.6998 74.1971 34.8079C76.7676 34.2946 80.2988 31.2559 80.2884 28.4505C80.2832 26.5215 79.4628 24.7325 77.531 24.6444H76.2223C75.433 24.6081 74.9397 23.7629 75.298 23.0576C75.864 21.9531 76.456 20.9264 77.0636 19.9619C77.9672 20.7864 79.3173 21.5487 81.2335 22.1139C88.0311 24.1155 86.6654 32.8115 90.2745 34.1079C98.012 36.8873 100.614 26.1741 91.2352 24.7274H91.2404Z" fill="#FFE045"/>
    <path d="M77.7287 28.5102C76.6693 34.5098 69.555 35.0439 67.3428 30.3199C65.1306 25.5959 69.7315 26.8353 69.4875 20.6749C69.0461 10.1743 57.9954 19.8297 57.9954 19.8297L57.8864 19.9645C57.4086 20.9653 56.9828 21.6654 56.2714 23.0499C55.9131 23.7551 56.4012 24.6003 57.1957 24.6366H58.5044C60.4361 24.7248 61.2566 26.5138 61.2618 28.4428C61.2722 31.2481 57.741 34.2868 55.1705 34.8002C50.6993 35.6973 48.0146 32.9178 48.3677 30.5118C49.2869 24.2633 57.6735 24.144 53.9346 16.2673C51.4939 11.1181 56.1675 10.1277 56.1675 10.1277C56.1675 10.1277 58.8056 9.5106 59.7818 12.7204C60.0467 13.6019 60.6387 13.6745 59.034 17.3562C66.3198 13.9597 67.1922 13.9857 68.6878 14.219C72.5565 14.8153 71.6374 24.0922 71.7724 24.0922C71.9074 24.0922 78.7984 22.5054 77.7391 28.505L77.7287 28.5102Z" fill="#FFE045"/>
    <path d="M126.365 24.6443H125.057C124.267 24.608 123.774 23.7628 124.132 23.0576C128.972 13.6148 135.848 9.51313 135.162 5.49438C134.248 0.0807483 128.848 0.744489 128.848 0.744489C128.848 0.744489 121.24 1.60528 124.439 9.72055C125.322 11.9607 125.161 14.0712 124.444 16.0883C124.418 16.0365 124.397 15.9846 124.366 15.9327C122.128 12.2459 116.037 11.8466 110.766 15.0357C105.495 18.2299 103.033 23.8043 105.272 27.4912C107.172 30.6232 111.846 31.3751 116.442 29.5809C116.348 29.8972 116.275 30.2084 116.229 30.5195C115.876 32.9256 118.56 35.6998 123.031 34.8079C125.602 34.2945 129.133 31.2558 129.123 28.4505C129.118 26.5215 128.297 24.7325 126.365 24.6443ZM118.571 27.8956C115.154 29.9646 110.703 28.8757 108.631 25.4637C106.559 22.0516 107.65 17.6077 111.067 15.5387C114.484 13.4696 118.934 14.5586 121.006 17.9706C123.078 21.3827 121.988 25.8266 118.571 27.8956Z" fill="#FFE045"/>
    <path d="M103.319 25.57C101.496 26.6694 99.8501 27.6805 98.3753 28.3806C98.6142 29.0184 99.0659 29.734 100.359 30.434C101.756 31.1963 103.402 31.4452 104.939 31.0304C106.902 30.5066 107.852 29.231 108.247 27.7635L108.886 27.6909L108.496 28.7384C107.826 30.2162 107.032 31.1237 106.585 31.5696C104.643 33.509 101.289 33.3483 98.0793 32.3578C94.8752 31.3674 92.6319 29.6095 91.5985 26.7886C91.5985 26.7783 91.5881 26.7679 91.5829 26.7575C91.5725 26.7264 91.5517 26.6953 91.5414 26.659H91.5517C90.0925 23.0084 92.5592 17.9941 97.4509 15.028C102.722 11.8337 108.813 12.2382 111.051 15.9251C113.289 19.6119 108.585 22.3706 103.314 25.5649L103.319 25.57ZM106.492 18.6993C107.369 18.1704 107.536 16.9362 106.798 16.2258C104.368 13.8872 100.582 13.3738 97.56 15.2043C94.5377 17.0348 93.2446 20.6231 94.195 23.8588C94.4858 24.8441 95.6542 25.2641 96.5318 24.73L106.492 18.6993Z" fill="#FFE045"/>
    <path d="M143.918 45.3567C141.835 46.5857 105.801 46.259 91.0273 43.1581C90.3885 43.0233 89.7238 42.8833 89.0332 42.7536C87.9167 44.3248 86.8054 46.0775 85.7824 48.0739C85.4241 48.7792 85.9122 49.6244 86.7067 49.6607H88.0153C89.9471 49.7488 90.7676 51.5378 90.7728 53.4668C90.7832 56.2722 87.252 59.3109 84.6815 59.8242C80.2103 60.7213 77.5256 57.9419 77.8787 55.5358C78.2734 52.8601 80.418 50.1533 82.4952 47.2909C80.9685 46.9176 79.4106 45.8494 78.7303 44.776C76.9492 41.9706 78.1435 39.4194 79.8728 39.0356C81.7319 38.6208 84.0427 39.3053 86.4419 39.9483C86.8365 38.2838 86.8054 36.557 86.0939 34.7421C82.8951 26.6268 90.5028 25.766 90.5028 25.766C90.5028 25.766 95.9034 25.1023 96.8226 30.5107C97.2952 33.3057 94.1171 36.1421 90.508 40.7883C90.7001 40.8091 90.8922 40.8246 91.0792 40.835C92.9227 40.9283 136.73 40.555 138.236 39.1757C142.926 34.8821 145.507 39.8238 145.507 39.8238C145.507 39.8238 147.371 43.3188 143.928 45.3567H143.918Z" fill="#FFE045"/>
    <path d="M49.0835 9.88819C47.0687 12.3357 43.6621 12.8647 41.4758 11.0653C39.2896 9.27112 39.1546 5.83315 41.1747 3.38561C43.1895 0.938061 46.5961 0.409143 48.7823 2.2085C50.9686 4.00268 51.1036 7.44065 49.0835 9.88819Z" fill="#FFE045"/>
  </g>
  <defs>
    <clipPath id="clip0_6044_17415">
      <rect width="146" height="59.8974" fill="white" transform="translate(0 0.71875)"/>
    </clipPath>
  </defs>
</svg>