<svg xmlns="http://www.w3.org/2000/svg" width="61" height="61" viewBox="0 0 61 61" fill="none">
  <g filter="url(#filter0_d_1512_8571)">
    <rect x="5" y="5" width="50" height="50" rx="25" fill="white"/>
  </g>
  <path d="M24.9946 35.0017L21.2028 36.5812C21.1236 36.6142 21.0424 36.5386 21.0695 36.4572L22.3294 32.6785C22.3344 32.6633 22.3431 32.6495 22.3547 32.6383L32.9632 22.3639C33.0024 22.3259 33.0649 22.3264 33.1035 22.365L34.371 23.6322L35.635 24.8959C35.675 24.9359 35.6739 25.001 35.6327 25.0396L25.0245 34.9823C25.0158 34.9905 25.0056 34.9971 24.9946 35.0017Z" fill="black" stroke="black"/>
  <path d="M37.2948 24.1397C37.1034 24.3582 36.7667 24.3682 36.5627 24.1615L33.853 21.4167C33.6689 21.2302 33.66 20.9332 33.8327 20.7361L34.9994 19.4044C35.1908 19.1859 35.5275 19.1759 35.7315 19.3826L38.4412 22.1275C38.6253 22.3139 38.6341 22.6109 38.4614 22.808L37.2948 24.1397Z" fill="black"/>
  <path d="M27.0168 37L37.0451 37" stroke="black" stroke-width="3.05192" stroke-linecap="round"/>
  <defs>
    <filter id="filter0_d_1512_8571" x="0.1" y="0.1" width="60" height="60" filterUnits="userSpaceOnUse" color-interpolation-filters="sRGB">
      <feFlood flood-opacity="0" result="BackgroundImageFix"/>
      <feColorMatrix in="SourceAlpha" type="matrix" values="0 0 0 0 0 0 0 0 0 0 0 0 0 0 0 0 0 0 127 0" result="hardAlpha"/>
      <feOffset dx="0.1" dy="0.1"/>
      <feGaussianBlur stdDeviation="2.5"/>
      <feComposite in2="hardAlpha" operator="out"/>
      <feColorMatrix type="matrix" values="0 0 0 0 1 0 0 0 0 1 0 0 0 0 1 0 0 0 0.2 0"/>
      <feBlend mode="normal" in2="BackgroundImageFix" result="effect1_dropShadow_1512_8571"/>
      <feBlend mode="normal" in="SourceGraphic" in2="effect1_dropShadow_1512_8571" result="shape"/>
    </filter>
  </defs>
</svg>