<svg xmlns="http://www.w3.org/2000/svg" width="24" height="33" viewBox="0 0 24 33" fill="none">
<path d="M1 25.5V29.5C1 30.6046 1.89543 31.5 3 31.5H21C22.1046 31.5 23 30.6046 23 29.5V25.5" stroke="white" stroke-width="2" stroke-linecap="round"/>
<path d="M13 1.5C13 0.947715 12.5523 0.5 12 0.5C11.4477 0.5 11 0.947715 11 1.5L13 1.5ZM11.2929 21.2071C11.6834 21.5976 12.3166 21.5976 12.7071 21.2071L19.0711 14.8431C19.4616 14.4526 19.4616 13.8195 19.0711 13.4289C18.6805 13.0384 18.0474 13.0384 17.6569 13.4289L12 19.0858L6.34315 13.4289C5.95262 13.0384 5.31946 13.0384 4.92893 13.4289C4.53841 13.8195 4.53841 14.4526 4.92893 14.8431L11.2929 21.2071ZM11 1.5L11 20.5L13 20.5L13 1.5L11 1.5Z" fill="white"/>
</svg>