<svg xmlns="http://www.w3.org/2000/svg" width="15" height="21" viewBox="0 0 15 21" fill="none">
<path d="M0.693848 15.7783V18.2658C0.693848 18.9527 1.25069 19.5096 1.9376 19.5096H13.1313C13.8183 19.5096 14.3751 18.9527 14.3751 18.2658V15.7783" stroke="white" stroke-width="1.24375" stroke-linecap="round"/>
<path d="M8.15654 0.853516C8.15654 0.510064 7.87812 0.231641 7.53467 0.231641C7.19122 0.231641 6.91279 0.510064 6.91279 0.853516L8.15654 0.853516ZM7.09494 13.1089C7.33779 13.3517 7.73154 13.3517 7.9744 13.1089L11.932 9.15128C12.1748 8.90843 12.1748 8.51468 11.932 8.27182C11.6891 8.02896 11.2954 8.02896 11.0525 8.27182L7.53467 11.7897L4.01681 8.27182C3.77395 8.02896 3.38021 8.02896 3.13735 8.27182C2.89449 8.51468 2.89449 8.90843 3.13735 9.15128L7.09494 13.1089ZM6.91279 0.853516L6.91279 12.6691L8.15654 12.6691L8.15654 0.853516L6.91279 0.853516Z" fill="white"/>
</svg>