<svg width="36" height="36" viewBox="0 0 36 36" fill="none" xmlns="http://www.w3.org/2000/svg">
<path d="M8.75 17C8.19772 17 7.75 17.4477 7.75 18C7.75 18.5523 8.19772 19 8.75 19V17ZM27.9571 18.7071C28.3476 18.3166 28.3476 17.6834 27.9571 17.2929L21.5931 10.9289C21.2026 10.5384 20.5695 10.5384 20.1789 10.9289C19.7884 11.3195 19.7884 11.9526 20.1789 12.3431L25.8358 18L20.1789 23.6569C19.7884 24.0474 19.7884 24.6805 20.1789 25.0711C20.5695 25.4616 21.2026 25.4616 21.5931 25.0711L27.9571 18.7071ZM8.75 19H27.25V17H8.75V19Z" fill="#121212"/>
</svg>
