<svg width="582" height="375" viewBox="0 0 582 375" fill="none" xmlns="http://www.w3.org/2000/svg">
<rect width="582" height="375" fill="#1D1D1D"/>
<path fill-rule="evenodd" clip-rule="evenodd" d="M582 0V2.59278C581.818 2.67015 581.636 2.74696 581.453 2.82321C581.091 1.88104 580.731 0.939712 580.372 0H582ZM485.637 12.7004L486.441 13.1112C461.016 13.1561 437.232 14.1527 419.641 23.3584C399.888 33.7141 393.748 68.619 424.514 96.9495C442.185 113.25 483.77 123.059 504.524 107.853C518.806 97.412 527.653 81.6778 517.889 66.8719L510.832 57.1642C506.817 51.0744 510.455 42.8952 517.618 41.7502C537.945 38.5731 556.94 37.3652 574.617 37.1745C577.24 42.7042 579.669 48.1106 582 53.3218V375H0V0H352.767C365.808 6.11076 383.401 7.78737 405.147 1.15652C406.519 0.738175 407.874 0.353121 409.211 0H455.751C466.911 3.13464 476.615 8.09188 485.637 12.7004Z" fill="#616FED"/>
</svg>
