<svg width="582" height="376" viewBox="0 0 582 376" fill="none" xmlns="http://www.w3.org/2000/svg">
<rect y="1" width="582" height="375" fill="#1D1D1D"/>
<path fill-rule="evenodd" clip-rule="evenodd" d="M349.871 0H229.822C224.653 8.14427 220.097 16.8351 216.246 26.0363C179.437 114.03 220.862 215.337 308.896 252.322C344.136 267.116 381.494 269.363 415.988 261.087C420.521 216.464 458.797 229.552 458.797 229.552C458.797 229.552 465.281 231.702 471.164 237.117C498.665 218.927 521.256 192.662 534.953 159.941C535.851 157.796 536.702 155.643 537.507 153.483C535.526 155.437 533.345 157.277 531.019 158.977C510.264 174.183 468.68 164.374 451.009 148.074C420.243 119.743 426.383 84.8382 446.136 74.4825C467.014 63.5461 487.031 67.2534 506.009 70.7683C520.311 73.4172 534.023 75.9568 547.069 72.0373C543.879 46.3732 534.967 21.7275 521.106 0H458.545L462.963 6.07733C472.726 20.8832 463.88 36.6174 449.598 47.0585C428.843 62.264 387.258 52.4552 369.588 36.1548C356.353 23.9457 350.551 11.2312 349.871 0ZM548.383 92.2285C547.027 92.4284 545.607 92.6425 544.113 92.8743C536.949 94.0193 533.312 102.199 537.327 108.288L544.384 117.996C545.052 119.008 545.632 120.025 546.13 121.044C547.704 111.431 548.443 101.794 548.383 92.2285ZM582 0V27.0446C574.915 17.7649 567.04 8.72089 558.43 0H582ZM305.3 260.883C176.544 206.74 101.214 91.5554 132.814 0H0V375H327.049C324.783 366.204 325.606 357.221 329.713 349.945C336.532 337.872 351.089 329.354 366.33 320.435C382.02 311.254 398.435 301.649 407.88 287.304C374.495 284.005 339.681 275.333 305.3 260.883ZM442.12 295.354L442.124 295.352C447.494 292.848 452.454 290.535 456.892 288.257C486.55 286.371 514.109 279.895 538.009 269.164C541.461 275.953 546.558 282.771 553.578 289.25C560.368 295.513 570.688 300.817 582 304.113V375H567.81C563.588 366.68 558.791 359.454 552.798 354.17C551.891 353.368 550.91 352.653 549.867 352.028C535.815 342.022 514.021 339.031 487.005 351.42C475.808 356.547 464.341 364.761 453.046 372.852L453.046 372.852C452.044 373.57 451.044 374.287 450.045 375H365.552C359.684 362.474 361.579 347.098 375.662 335.266C399.601 315.181 423.357 304.104 442.117 295.356L442.12 295.354Z" fill="#616FED"/>
</svg>
