<svg width="582" height="376" viewBox="0 0 582 376" fill="none" xmlns="http://www.w3.org/2000/svg">
<rect y="1" width="582" height="375" fill="#1D1D1D"/>
<path fill-rule="evenodd" clip-rule="evenodd" d="M8.49354 103.538C15.899 132.347 15.4109 161.207 5.67638 187.979C10.3848 185.662 15.4699 182.474 21.0019 178.108C65.4012 142.889 38.3364 118.038 8.49354 103.538ZM30.0425 252.417C29.9826 248.061 28.8875 243.754 27.2141 239.682C28.5509 236.84 31.1956 234.608 34.6819 234.05C45.928 232.293 56.737 231.148 67.1684 230.454C65.9248 241.603 67.5512 255.729 73.6918 272.992C83.5359 300.626 74.2929 323.276 62.0936 342.917C46.0967 340.652 26.4767 346.54 7.6054 375H0V307.47C8.18688 306.752 15.7199 304.452 21.5879 300.153C35.8698 289.712 44.7164 273.978 34.9528 259.172L30.0425 252.417ZM19.0968 205.461C38.8481 191.306 76.8538 161.186 64.5812 137.36C58.8044 126.094 54.5429 119.603 4.92167 91.4444C3.63736 87.5938 2.21487 83.7495 0.657456 79.9167C20.5298 74.636 22.9345 70.7053 25.7142 66.1614C26.2957 65.211 26.8935 64.2338 27.671 63.2117C46.2175 38.6598 27.4138 22.4179 27.4138 22.4179C27.4138 22.4179 15.21 11.4219 0 13.4264V0H582V375H247.37C237.673 367.212 226.34 360.405 213.695 355.098C209.73 353.434 205.75 351.966 201.775 350.689C222.556 349.423 228.627 327.76 228.627 327.76C228.627 327.76 240.404 287.344 192.404 286.262C163 285.575 147.676 260.18 133.374 236.478C132.141 234.434 130.915 232.403 129.689 230.401C136.313 230.753 142.662 231.161 148.727 231.55L148.729 231.551L148.73 231.551C184.55 233.852 210.462 235.517 224.518 221.17C259.683 185.185 225.635 148.701 225.635 148.701C225.635 148.701 178.223 96.9065 135.272 164.4C110.017 204.087 63.5346 205.541 19.0968 205.461ZM183.746 346.177C175.953 340.403 169.87 328.772 162.125 313.962C152.521 295.598 140.362 272.347 119.217 249.319C76.2054 202.476 73.6694 293.301 107.849 360.499C125.854 346.162 153.867 340.798 183.746 346.177ZM238.307 375H133.569C152.859 353.146 184.593 344.936 212.976 356.857C223.013 361.073 231.553 367.355 238.307 375Z" fill="#616FED"/>
</svg>
