<svg width="582" height="375" viewBox="0 0 582 375" fill="none" xmlns="http://www.w3.org/2000/svg">
<rect width="582" height="375" fill="#1D1D1D"/>
<path fill-rule="evenodd" clip-rule="evenodd" d="M582 375H244.922C202.407 331.482 45.43 121.065 0 58.8715V38.1506C6.81737 38.5066 13.3452 38.9237 19.5734 39.3217L19.5741 39.3217C44.341 40.9041 64.3685 42.1837 79.0157 38.1163C81.1176 37.9728 83.2033 37.6586 85.2535 37.1803C86.1611 40.8089 87.2544 44.487 88.526 48.2142C98.4854 77.3624 115.384 103.115 140.244 107.064C144.438 107.73 151.484 108.446 160.696 107.596C165.345 130.214 182.595 153.053 208.167 169.445C205.317 170.457 202.617 171.596 200.057 172.927C180.303 183.282 174.202 218.159 204.93 246.518C222.6 262.818 264.185 272.627 284.94 257.421C299.221 246.98 308.068 231.246 298.304 216.44L291.247 206.733C287.26 200.681 290.87 192.464 298.034 191.319C342.583 184.36 380.983 186.826 411.965 188.816C447.852 191.121 473.788 192.787 487.803 178.428C523.035 142.453 488.986 105.969 488.986 105.969C488.986 105.969 441.575 54.1749 398.624 121.668C386.767 140.298 370.242 150.485 351.414 156.047C351.496 155.889 351.58 155.736 351.665 155.583C351.834 155.276 352.004 154.97 352.148 154.63C367.428 118.144 337.541 70.8036 285.46 48.9006C284.63 48.5525 283.8 48.2128 282.969 47.8817C286.62 32.4774 283.066 15.6995 273.847 0H582V375ZM0 375V112.195C45.9969 194.901 117.835 301.938 171.131 375H0ZM162.76 48.6335C164.207 49.2436 165.666 49.8586 167.136 50.4791L167.147 50.4126C168.055 50.7939 168.962 51.1748 169.867 51.5547L169.915 51.5749C172.792 52.7833 175.649 53.983 178.481 55.1647C171.901 60.6609 166.743 67.4074 163.433 75.3126C159.895 83.7569 158.778 92.7755 159.796 101.922C151.821 101.538 143.575 98.6018 135.367 91.9442C124.001 82.7785 116.97 69.2245 115.091 54.7511C113.311 41.3838 116.183 34.1733 119.627 28.9617C131.699 35.5415 146.496 41.7785 162.76 48.6335ZM210.997 67.8813C243.644 79.1838 269.61 81.5525 280.384 55.8268C280.765 54.9174 281.117 54.0013 281.443 53.0789C282.081 53.3245 282.718 53.5807 283.353 53.8475C317.128 68.0379 333.049 106.924 318.912 140.695C304.774 174.466 265.926 190.341 232.151 176.151C198.376 161.96 182.454 123.074 196.592 89.3031C200.056 81.0284 205.004 73.8282 210.997 67.8813ZM147.24 0H253.921C255.939 8.3617 256.43 17.1387 255.217 25.8985C253.924 35.1998 243.872 40.6225 235.216 36.9644L147.24 0Z" fill="#616FED"/>
</svg>
