<svg width="582" height="375" viewBox="0 0 582 375" fill="none" xmlns="http://www.w3.org/2000/svg">
<rect width="582" height="375" fill="#1D1D1D"/>
<path fill-rule="evenodd" clip-rule="evenodd" d="M0 0H582V284.461C565.754 291.586 554.246 306.109 553.226 323.497C552.073 342.675 563.976 359.935 582 368.326V375H524.156C519.763 371.668 515.249 368.414 510.617 365.245C530.534 323.328 505.197 260.727 418.361 254.611C292.725 245.728 164.076 162.902 268.303 142.011C319.351 131.789 362.975 134.596 397.428 136.812C433.296 139.12 459.225 140.788 473.244 126.453C508.409 90.4677 474.36 53.9833 474.36 53.9833C474.36 53.9833 426.949 2.18933 383.998 69.6829C357.711 111.011 308.371 110.854 262.292 110.709C233.149 110.616 205.309 110.528 185.431 120.941C156.214 136.234 156.838 205.436 262.778 227.341C310.763 237.262 335.07 270.21 352.55 304.718C264.536 293.494 185.139 319.33 147.751 375H0V0ZM253.996 375C283.158 346.165 321.77 328.702 362.434 325.618C363.715 328.467 364.973 331.297 366.217 334.096L366.218 334.098L366.219 334.099L366.22 334.101C371.577 346.154 376.674 357.622 382.286 367.52C377.239 369.101 372.104 371.068 367.219 373.516C366.316 373.967 365.438 374.463 364.586 375H253.996Z" fill="#616FED"/>
</svg>
