<svg width="582" height="376" viewBox="0 0 582 376" fill="none" xmlns="http://www.w3.org/2000/svg">
<rect y="1" width="582" height="375" fill="#1D1D1D"/>
<g clip-path="url(#clip0_3853_11997)">
<path d="M0 0H582V375H0V0Z" fill="#151515"/>
<g filter="url(#filter0_d_3853_11997)">
<rect y="286.461" width="582" height="89.5385" fill="#151515"/>
</g>
<g clip-path="url(#clip1_3853_11997)">
<path d="M69.9069 323.521C70.0294 323.985 69.6901 324.403 69.2661 324.31C63.527 322.983 39.6187 318.647 37.6774 319.668C35.067 321.051 36.3958 324.088 36.3958 324.088C36.3958 324.088 38.2334 328.377 41.8145 325.239C45.3955 322.101 71.1697 328.173 74.5434 327.727C75.8439 327.551 76.7768 325.555 75.4952 323.094C74.7602 321.683 72.555 320.104 71.1131 320.55C70.1236 320.856 69.3603 321.618 69.6619 322.75L69.8975 323.512L69.9069 323.521Z" fill="#616FED"/>
<path d="M63.6964 331.766C63.8189 332.231 63.4797 332.648 63.0556 332.555C57.3165 331.228 33.4083 326.892 31.467 327.913C28.8566 329.296 30.1853 332.333 30.1853 332.333C30.1853 332.333 32.023 336.622 35.604 333.484C39.1851 330.346 64.9592 336.418 68.333 335.972C69.6334 335.796 70.5664 333.8 69.2848 331.339C68.5497 329.928 66.3445 328.349 64.9027 328.795C63.9132 329.101 63.1499 329.863 63.4514 330.996L63.687 331.757L63.6964 331.766Z" fill="#616FED"/>
<path d="M47.3933 324.181C46.3378 325.973 45.207 327.792 44.0855 329.566C40.0239 335.954 35.9622 341.841 35.425 344.542C34.9633 346.864 37.4794 349.705 41.9369 349.036C44.5002 348.656 48.1284 345.861 48.2509 343.131C48.3357 341.256 47.61 339.473 45.7064 339.296L44.4154 339.231C43.6332 339.157 43.1903 338.312 43.5767 337.644C44.6887 335.74 46.2342 333.363 47.9776 330.745" fill="#616FED"/>
<path d="M47.9401 330.819C48.9956 329.027 50.1264 327.207 51.2479 325.434C55.3095 319.046 59.3712 313.159 59.9084 310.457C60.3701 308.136 57.854 305.295 53.3965 305.964C50.8332 306.344 47.205 309.139 47.0825 311.869C46.9977 313.744 47.7234 315.527 49.627 315.703L50.918 315.768C51.7002 315.843 52.1431 316.688 51.7567 317.356C50.6447 319.26 49.0992 321.636 47.3558 324.255" fill="#616FED"/>
<path d="M58.5605 324.181C57.5051 325.973 56.3742 327.792 55.2528 329.566C51.1911 335.954 47.1294 341.841 46.5923 344.542C46.1305 346.864 48.6467 349.705 53.1041 349.036C55.6674 348.656 59.2956 345.861 59.4181 343.131C59.5029 341.256 58.7773 339.473 56.8737 339.296L55.5826 339.231C54.8004 339.157 54.3575 338.312 54.7439 337.644C55.8559 335.74 57.4014 333.363 59.1448 330.745" fill="#616FED"/>
<path d="M59.1071 330.819C60.1626 329.027 61.2934 327.207 62.4149 325.434C66.4765 319.046 70.5382 313.159 71.0753 310.457C71.5371 308.136 69.021 305.295 64.5635 305.964C62.0002 306.344 58.372 309.139 58.2495 311.869C58.1647 313.744 58.8903 315.527 60.794 315.703L62.085 315.768C62.8672 315.843 63.3101 316.688 62.9237 317.356C61.8117 319.26 60.2662 321.636 58.5228 324.255" fill="#616FED"/>
</g>
<path d="M103 310.338L103 346.153" stroke="#686868" stroke-width="1.49231" stroke-linecap="round"/>
<rect x="24" y="209" width="124" height="56" rx="28" fill="#616FED"/>
<path d="M51.0128 241.883H46.7437L45.9091 247H43.1999L44.0345 241.883H41.2569L41.6947 239.201H44.4861L45.1702 234.986H42.4063L42.8441 232.305H45.6217L46.4564 227.187H49.1656L48.331 232.305H52.6L53.4347 227.187H56.1165L55.2819 232.305H58.0869L57.6216 234.986H54.8303L54.1462 239.201H56.9375L56.4996 241.883H53.6947L52.86 247H50.1781L51.0128 241.883ZM51.4643 239.201L52.1485 234.986H47.8794L47.1953 239.201H51.4643ZM79.2406 234.193H82.2509V236.738H79.2406V249.436H76.203V224.697H79.2406V234.193ZM58.6068 241.992C60.0116 240.952 60.9785 239.497 61.5076 237.627C62.0367 235.757 62.3012 233.655 62.3012 231.319V229.431H59.5373V226.968H66.7618V229.431H65.1746V231.319C65.1837 233.089 65.3297 234.745 65.6125 236.286C65.9044 237.828 66.4517 239.187 67.2544 240.364C68.0298 239.196 68.5634 237.842 68.8553 236.3C69.1472 234.749 69.2977 233.089 69.3069 231.319V229.431H67.7196V226.968H74.6158V229.431H72.2076V231.319C72.1985 233.673 72.4585 235.78 72.9876 237.641C73.5166 239.502 74.4881 240.952 75.902 241.992L73.959 244.181C72.4357 242.995 71.3502 241.125 70.7025 238.571C70.0184 241.253 68.8599 243.196 67.227 244.4C65.6216 243.205 64.4768 241.271 63.7926 238.599C63.1359 241.144 62.0549 243.005 60.5498 244.181L58.6068 241.992ZM103.897 241.527H100.887V224.697H103.897V241.527ZM84.6043 226.257H96.0159V233.645H87.6419V236.464C89.968 236.455 91.9429 236.396 93.5666 236.286C95.1904 236.177 96.8277 235.981 98.4788 235.698L98.8072 238.133C97.0375 238.453 95.2679 238.667 93.4982 238.777C91.7377 238.877 89.4937 238.927 86.7662 238.927H84.6591V231.319H93.0056V228.72H84.6043V226.257ZM86 247C87.6237 246.781 89.0422 246.371 90.2554 245.769C91.4777 245.166 92.4127 244.432 93.0604 243.566C93.7172 242.699 94.0455 241.773 94.0455 240.788V240.268H97.2474V240.788C97.2382 241.764 97.5575 242.685 98.2052 243.552C98.8528 244.418 99.7832 245.157 100.996 245.769C102.21 246.371 103.633 246.781 105.266 247L104.144 249.326C102.155 249.025 100.426 248.455 98.9577 247.616C97.4891 246.786 96.3808 245.746 95.6328 244.496C94.8848 245.746 93.7765 246.79 92.3078 247.629C90.8392 248.469 89.1197 249.034 87.1494 249.326L86 247ZM127.076 232.496H130.524V235.014H127.076V243.196H124.038V224.724H127.076V232.496ZM107.592 227.461H113.421V224.697H116.458V227.461H122.26V229.896H107.592V227.461ZM108.85 235.643C108.85 234.704 109.106 233.878 109.617 233.167C110.128 232.446 110.844 231.89 111.765 231.497C112.686 231.105 113.74 230.909 114.926 230.909C116.102 230.909 117.147 231.105 118.059 231.497C118.98 231.89 119.696 232.446 120.207 233.167C120.718 233.878 120.974 234.704 120.974 235.643C120.974 236.574 120.718 237.395 120.207 238.106C119.696 238.808 118.985 239.356 118.073 239.748C117.161 240.131 116.112 240.323 114.926 240.323C113.731 240.323 112.673 240.131 111.751 239.748C110.839 239.356 110.128 238.808 109.617 238.106C109.106 237.395 108.85 236.574 108.85 235.643ZM111.231 241.746H114.269V246.48H128.061V248.943H111.231V241.746ZM111.806 235.643C111.797 236.373 112.07 236.943 112.627 237.354C113.192 237.764 113.945 237.969 114.885 237.969C115.852 237.969 116.622 237.769 117.197 237.367C117.781 236.957 118.073 236.382 118.073 235.643C118.073 234.904 117.785 234.325 117.211 233.905C116.636 233.477 115.874 233.262 114.926 233.262C113.977 233.262 113.215 233.477 112.641 233.905C112.075 234.325 111.797 234.904 111.806 235.643Z" fill="white"/>
<rect x="27.1128" y="126" width="199.288" height="75.4194" rx="37.7097" transform="rotate(11.5594 27.1128 126)" fill="#616FED"/>
<path d="M53.7134 176.676L48.0805 175.524L45.5982 182.051L42.0235 181.32L44.5058 174.793L40.8409 174.043L42.1423 170.623L45.8254 171.376L47.8654 166L44.2185 165.254L45.52 161.834L49.1849 162.583L51.6673 156.056L55.242 156.787L52.7596 163.314L58.3925 164.467L60.8748 157.94L64.4134 158.663L61.9311 165.19L65.6321 165.947L64.2946 169.36L60.6115 168.607L58.5715 173.983L62.2545 174.736L60.953 178.157L57.252 177.4L54.7696 183.927L51.231 183.203L53.7134 176.676ZM55.0329 173.259L57.0729 167.883L51.4401 166.731L49.4001 172.107L55.0329 173.259ZM78.0868 159.128C79.7237 159.462 81.1329 160.083 82.3144 160.989C83.4983 161.883 84.3489 162.966 84.8662 164.238C85.3955 165.513 85.5222 166.855 85.2462 168.266C84.9437 169.684 84.2988 170.875 83.3116 171.839C82.3389 172.794 81.1313 173.456 79.6889 173.826C78.249 174.183 76.7106 174.194 75.0737 173.86C73.4247 173.522 72.0023 172.905 70.8063 172.009C69.6249 171.103 68.7743 170.019 68.2545 168.76C67.7372 167.488 67.6238 166.141 67.9143 164.721C68.2023 163.313 68.8339 162.126 69.8091 161.159C70.7843 160.192 71.9918 159.53 73.4318 159.172C74.8862 158.805 76.4379 158.79 78.0868 159.128ZM71.814 165.519C71.6441 166.349 71.6998 167.119 71.981 167.829C72.2647 168.526 72.7331 169.118 73.3864 169.602C74.0396 170.087 74.8236 170.423 75.7383 170.61C76.6531 170.797 77.5 170.795 78.279 170.603C79.0701 170.414 79.733 170.054 80.2678 169.524C80.8171 168.984 81.1767 168.299 81.3465 167.469C81.5115 166.662 81.4461 165.909 81.1504 165.209C80.8667 164.511 80.397 163.926 79.7413 163.454C79.1001 162.971 78.3221 162.637 77.4074 162.45C76.4927 162.262 75.6397 162.264 74.8487 162.453C74.06 162.63 73.3983 162.984 72.8636 163.514C72.3288 164.044 71.9789 164.712 71.814 165.519ZM70.9188 175.229L92.5836 179.661L90.8407 188.182L73.1839 184.571L72.6448 187.207L91.2765 191.017L90.6266 194.195L68.0591 189.579L69.8537 180.805L87.4383 184.401L87.9331 181.982L70.2763 178.371L70.9188 175.229ZM92.2026 160.924L96.2467 161.751L92.8717 178.252L88.8276 177.425L92.2026 160.924ZM124.263 188.284L120.255 187.464L122.204 177.932L116.644 176.795L117.308 173.545L122.869 174.682L124.331 167.533L128.339 168.353L124.263 188.284ZM101.908 164.79L116.603 167.795L114.617 177.509L103.965 175.33L103.204 179.049C106.023 179.613 108.425 180.042 110.409 180.334C112.393 180.627 114.429 180.818 116.517 180.907L116.142 184.216C113.82 184.104 111.545 183.884 109.318 183.553C107.093 183.211 104.362 182.709 101.124 182.047L98.5604 181.522L100.613 171.484L111.301 173.67L112.003 170.24L101.243 168.039L101.908 164.79ZM100.828 190.3C101.091 189.012 101.762 188.002 102.84 187.269C103.917 186.537 105.335 186.106 107.092 185.976C108.863 185.837 110.898 186.002 113.197 186.472C115.496 186.943 117.427 187.588 118.989 188.409C120.566 189.221 121.707 190.175 122.41 191.272C123.114 192.369 123.334 193.561 123.07 194.849C122.807 196.137 122.136 197.147 121.059 197.88C119.981 198.612 118.556 199.048 116.785 199.188C115.023 199.341 112.993 199.183 110.694 198.713C108.395 198.243 106.459 197.59 104.887 196.754C103.325 195.933 102.192 194.974 101.488 193.877C100.785 192.78 100.564 191.588 100.828 190.3ZM104.836 191.12C104.62 192.116 105.054 192.995 106.14 193.756C107.24 194.508 108.928 195.117 111.202 195.582C113.549 196.062 115.401 196.177 116.756 195.928C118.111 195.678 118.892 195.048 119.099 194.037C119.303 193.038 118.837 192.159 117.701 191.4C116.579 190.631 114.868 190.012 112.57 189.542C110.259 189.069 108.436 188.966 107.103 189.232C105.784 189.489 105.028 190.118 104.836 191.12ZM153.438 207.493L149.394 206.666L156.078 173.988L160.122 174.815L153.438 207.493ZM131.172 183.377C131.643 181.079 132.417 179.13 133.496 177.533C134.576 175.935 135.855 174.799 137.335 174.124C138.829 173.439 140.401 173.265 142.05 173.602C143.675 173.934 145.034 174.708 146.127 175.922C147.235 177.127 147.978 178.677 148.355 180.572C148.732 182.467 148.686 184.564 148.215 186.863C147.74 189.186 146.957 191.145 145.866 192.74C144.775 194.335 143.482 195.475 141.988 196.16C140.508 196.836 138.956 197.007 137.331 196.675C135.682 196.338 134.303 195.567 133.195 194.362C132.102 193.148 131.373 191.594 131.008 189.701C130.642 187.808 130.697 185.7 131.172 183.377ZM135.036 184.168C134.699 185.817 134.601 187.276 134.742 188.547C134.896 189.819 135.258 190.84 135.828 191.609C136.398 192.377 137.145 192.863 138.069 193.064C138.986 193.239 139.858 193.085 140.684 192.602C141.51 192.119 142.238 191.321 142.867 190.208C143.495 189.096 143.979 187.715 144.316 186.066C144.651 184.429 144.746 182.981 144.602 181.723C144.461 180.453 144.105 179.433 143.535 178.664C142.967 177.884 142.226 177.4 141.311 177.213C140.385 177.023 139.507 177.176 138.678 177.671C137.852 178.154 137.119 178.951 136.478 180.061C135.851 181.162 135.371 182.531 135.036 184.168ZM188.815 193.625L166.211 189.002L168.508 177.772L172.48 178.584L170.833 186.637L189.465 190.447L188.815 193.625ZM161.572 192.003L191.397 198.103L190.748 201.281L160.922 195.18L161.572 192.003ZM163.906 198.8L167.914 199.62L166.614 205.975L185.716 209.882L185.051 213.131L161.942 208.405L163.906 198.8Z" fill="white"/>
<rect x="72.1462" y="87.6172" width="175.504" height="79.1102" rx="39.5551" transform="rotate(-7.23115 72.1462 87.6172)" fill="#616FED"/>
<path d="M116.062 129.246L110.079 130.005L109.819 137.326L106.022 137.807L106.282 130.487L102.389 130.981L102.526 127.145L106.438 126.648L106.647 120.621L102.774 121.112L102.911 117.276L106.803 116.782L107.063 109.462L110.86 108.98L110.6 116.3L116.583 115.541L116.843 108.221L120.601 107.744L120.342 115.064L124.273 114.565L124.098 118.407L120.186 118.903L119.976 124.931L123.888 124.434L123.751 128.271L119.82 128.769L119.561 136.09L115.802 136.567L116.062 129.246ZM116.218 125.408L116.427 119.38L110.444 120.139L110.235 126.167L116.218 125.408ZM153.785 114.055L158.579 113.447L159.027 116.975L154.233 117.583L156.428 134.88L152.132 135.425L147.733 100.755L152.029 100.21L153.785 114.055ZM127.017 128.519C128.388 126.63 129.438 124.717 130.167 122.78C130.895 120.843 131.363 118.849 131.57 116.796C131.79 114.742 131.803 112.493 131.61 110.049L126.164 110.74L125.722 107.25L135.233 106.043C135.642 109.369 135.81 112.387 135.739 115.098C135.665 117.796 135.227 120.437 134.425 123.019C133.635 125.601 132.381 128.098 130.66 130.512L127.017 128.519ZM137.127 129.574C138.471 127.468 139.477 125.314 140.146 123.112C140.826 120.895 141.235 118.642 141.373 116.351C141.509 114.047 141.457 111.541 141.217 108.83L136.826 109.387L136.383 105.897L144.821 104.827C145.257 108.37 145.473 111.603 145.467 114.526C145.474 117.448 145.121 120.35 144.409 123.234C143.708 126.102 142.517 128.851 140.837 131.48L137.127 129.574ZM189.514 114.003L185.218 114.548L182.902 96.2929L187.197 95.7479L189.514 114.003ZM160.619 114.162C162.225 113.517 163.584 112.708 164.695 111.736C165.818 110.762 166.657 109.694 167.211 108.533C167.778 107.37 168.049 106.179 168.024 104.961L160.661 105.896L160.233 102.521L167.635 101.581L167.192 98.0914L171.487 97.5464L171.93 101.036L179.293 100.102L179.722 103.477L172.358 104.411C172.643 105.531 173.203 106.564 174.037 107.511C174.883 108.443 175.975 109.22 177.314 109.842C178.666 110.463 180.204 110.859 181.927 111.03L180.418 114.495C178.311 114.269 176.442 113.713 174.81 112.829C173.19 111.944 171.875 110.792 170.864 109.375C170.265 111.1 169.291 112.64 167.943 113.993C166.595 115.346 164.921 116.435 162.921 117.26L160.619 114.162ZM166.678 118.304L189.689 115.384L190.793 124.09L172.039 126.469L172.385 129.192L192.174 126.681L192.593 129.98L168.623 133.021L167.479 124.008L186.157 121.639L185.845 119.184L167.091 121.564L166.678 118.304ZM220.991 102.566L225.824 101.953L226.271 105.481L221.439 106.095L222.894 117.562L218.637 118.102L215.352 92.2145L219.609 91.6744L220.991 102.566ZM192.79 98.9742L200.958 97.9377L200.467 94.0642L204.724 93.5241L205.215 97.3976L213.346 96.366L213.779 99.7793L193.223 102.388L192.79 98.9742ZM196.009 110.218C195.842 108.901 196.053 107.698 196.642 106.61C197.23 105.51 198.135 104.603 199.356 103.889C200.577 103.175 202.019 102.713 203.681 102.502C205.33 102.293 206.829 102.382 208.177 102.77C209.538 103.156 210.64 103.808 211.484 104.727C212.327 105.634 212.831 106.745 212.999 108.062C213.164 109.366 212.952 110.562 212.363 111.65C211.772 112.725 210.872 113.619 209.663 114.33C208.453 115.03 207.017 115.485 205.355 115.695C203.68 115.908 202.163 115.828 200.804 115.454C199.456 115.067 198.361 114.426 197.52 113.533C196.678 112.627 196.174 111.522 196.009 110.218ZM200.43 118.347L204.687 117.806L205.529 124.441L224.859 121.989L225.297 125.44L201.71 128.433L200.43 118.347ZM200.151 109.692C200.268 110.716 200.753 111.467 201.605 111.943C202.471 112.418 203.562 112.572 204.879 112.404C206.234 112.233 207.279 111.814 208.013 111.15C208.758 110.47 209.065 109.613 208.933 108.578C208.802 107.542 208.296 106.781 207.416 106.296C206.535 105.797 205.429 105.632 204.099 105.801C202.77 105.969 201.741 106.405 201.011 107.108C200.293 107.797 200.007 108.658 200.151 109.692Z" fill="white"/>
<rect x="205" y="151.526" width="167.288" height="75.4194" rx="37.7097" transform="rotate(-6.3584 205 151.526)" fill="#616FED"/>
<path d="M246.208 191.527L240.493 192.163L240.14 199.138L236.513 199.542L236.867 192.568L233.149 192.982L233.335 189.327L237.072 188.911L237.359 183.168L233.659 183.58L233.845 179.925L237.563 179.511L237.917 172.537L241.543 172.133L241.189 179.107L246.903 178.47L247.257 171.496L250.847 171.096L250.493 178.07L254.248 177.652L254.025 181.311L250.289 181.727L250.002 187.47L253.738 187.053L253.552 190.708L249.797 191.127L249.443 198.101L245.854 198.501L246.208 191.527ZM246.412 187.87L246.699 182.127L240.985 182.764L240.698 188.506L246.412 187.87ZM267.918 173.866C268.133 175.906 268.689 177.853 269.588 179.706C270.487 181.559 271.667 183.164 273.128 184.522C274.59 185.879 276.235 186.833 278.064 187.384L276.01 190.913C274.045 190.254 272.275 189.178 270.7 187.685C269.135 186.178 267.839 184.363 266.811 182.241C266.295 184.708 265.423 186.919 264.194 188.873C262.978 190.826 261.438 192.376 259.576 193.523L256.706 190.394C258.415 189.425 259.842 188.091 260.988 186.394C262.133 184.684 262.941 182.783 263.412 180.691C263.884 178.599 264.006 176.478 263.778 174.327L263.191 169.053L267.33 168.592L267.918 173.866ZM277.947 164.701L282.05 164.244L285.744 197.393L281.641 197.85L277.947 164.701ZM317.482 185.698L313.379 186.155L313.057 183.262L306.574 183.984L306.255 181.127L312.739 180.405L310.588 161.101L314.69 160.644L317.482 185.698ZM288.436 178.626C292.817 178.113 296.691 177.607 300.059 177.108C303.428 176.609 306.635 175.992 309.68 175.257L310.227 178.163C307.831 178.85 305.083 179.478 301.981 180.046L302.692 186.419L298.626 186.872L297.94 180.719C295.595 181.079 292.719 181.449 289.312 181.828L288.436 178.626ZM290.094 170.542C289.966 169.394 290.2 168.336 290.797 167.367C291.394 166.398 292.288 165.6 293.478 164.973C294.682 164.345 296.095 163.94 297.719 163.759C299.306 163.582 300.75 163.668 302.05 164.018C303.349 164.368 304.397 164.949 305.192 165.763C306 166.575 306.473 167.555 306.614 168.701C306.731 169.862 306.484 170.922 305.874 171.88C305.276 172.837 304.381 173.629 303.19 174.256C302.01 174.869 300.621 175.265 299.021 175.444C297.397 175.625 295.93 175.547 294.619 175.211C293.319 174.861 292.273 174.292 291.481 173.503C290.687 172.701 290.225 171.714 290.094 170.542ZM293.697 185.901L297.763 185.448L298.485 191.931L318.704 189.678L319.071 192.975L294.787 195.681L293.697 185.901ZM293.94 170.113C294.039 171.005 294.52 171.656 295.381 172.067C296.243 172.477 297.346 172.614 298.69 172.477C299.983 172.32 300.999 171.947 301.737 171.358C302.485 170.756 302.817 170.014 302.731 169.134C302.621 168.256 302.14 167.605 301.29 167.181C300.439 166.756 299.378 166.615 298.109 166.756C296.741 166.909 295.677 167.287 294.916 167.891C294.166 168.481 293.841 169.222 293.94 170.113ZM346.617 167.618L351.233 167.104L351.608 170.474L346.993 170.988L348.213 181.94L344.148 182.393L341.392 157.669L345.458 157.215L346.617 167.618ZM319.787 163.784L327.589 162.915L327.176 159.216L331.242 158.763L331.654 162.462L339.42 161.597L339.783 164.857L320.15 167.044L319.787 163.784ZM322.692 174.549C322.552 173.291 322.771 172.148 323.348 171.12C323.925 170.079 324.8 169.227 325.975 168.565C327.149 167.902 328.53 167.483 330.118 167.306C331.693 167.13 333.12 167.237 334.399 167.626C335.691 168.014 336.732 168.652 337.524 169.54C338.313 170.416 338.778 171.483 338.919 172.741C339.057 173.986 338.838 175.123 338.26 176.151C337.681 177.168 336.811 178.007 335.648 178.668C334.484 179.316 333.109 179.729 331.522 179.906C329.922 180.084 328.477 179.986 327.187 179.61C325.907 179.221 324.873 178.595 324.085 177.731C323.295 176.855 322.831 175.794 322.692 174.549ZM326.789 182.362L330.855 181.909L331.561 188.246L350.022 186.188L350.389 189.485L327.862 191.995L326.789 182.362ZM326.648 174.108C326.745 175.086 327.196 175.808 328.002 176.275C328.82 176.74 329.858 176.902 331.116 176.762C332.41 176.618 333.412 176.234 334.121 175.611C334.841 174.975 335.146 174.162 335.036 173.173C334.926 172.184 334.455 171.452 333.623 170.976C332.79 170.488 331.738 170.314 330.469 170.456C329.199 170.597 328.211 170.998 327.506 171.658C326.812 172.304 326.526 173.12 326.648 174.108Z" fill="white"/>
<rect x="364.662" y="141" width="167.288" height="75.4194" rx="37.7097" transform="rotate(2.02267 364.662 141)" fill="#616FED"/>
<path d="M399.599 186.579L393.853 186.376L392.487 193.224L388.84 193.095L390.207 186.247L386.468 186.115L387.185 182.526L390.942 182.659L392.063 177.019L388.343 176.888L389.06 173.299L392.798 173.431L394.165 166.583L397.811 166.712L396.445 173.56L402.191 173.763L403.557 166.915L407.167 167.042L405.8 173.89L409.576 174.024L408.822 177.611L405.065 177.479L403.944 183.118L407.701 183.251L406.984 186.84L403.209 186.706L401.842 193.554L398.233 193.427L399.599 186.579ZM400.334 182.991L401.456 177.351L395.71 177.148L394.588 182.788L400.334 182.991ZM437.861 175.096L428.21 174.756L428.104 177.776L441.253 178.24L441.137 181.518L410.713 180.444L410.829 177.166L424.015 177.632L424.122 174.611L414.877 174.285L415.226 164.414L419.24 164.555L419.007 171.148L437.976 171.818L437.861 175.096ZM414.248 182.708L437.342 183.523L437.046 191.884L418.114 191.216L418.023 193.794L438.06 194.502L437.947 197.706L413.785 196.853L414.092 188.16L433.098 188.832L433.178 186.548L414.136 185.875L414.248 182.708ZM469.56 178.687L474.68 178.868L474.559 182.293L469.439 182.112L468.834 199.239L464.782 199.096L465.96 165.763L470.011 165.906L469.56 178.687ZM445.157 167.942L460.479 168.483L460.036 181.043L448.839 180.647L448.605 187.277C451.429 187.352 453.925 187.354 456.091 187.283C458.257 187.2 460.452 187.007 462.675 186.705L462.927 190.032C460.468 190.388 458.032 190.603 455.62 190.678C453.221 190.753 450.4 190.733 447.159 190.619L444.433 190.523L444.903 177.226L456.063 177.62L456.274 171.653L445.04 171.257L445.157 167.942ZM506.22 186.952L493.366 186.498L493.15 192.612L488.988 192.465L489.204 186.351L475.797 185.877L475.912 182.599L506.336 183.674L506.22 186.952ZM479.468 173.8C479.517 172.425 480.051 171.239 481.069 170.243C482.1 169.246 483.528 168.504 485.352 168.015C487.176 167.526 489.273 167.324 491.643 167.408C494.025 167.492 496.108 167.842 497.894 168.458C499.679 169.074 501.044 169.915 501.99 170.981C502.936 172.047 503.385 173.268 503.336 174.643C503.287 176.03 502.753 177.216 501.735 178.201C500.717 179.185 499.296 179.921 497.471 180.41C495.648 180.887 493.545 181.083 491.163 180.999C488.781 180.915 486.697 180.571 484.912 179.967C483.139 179.351 481.773 178.516 480.814 177.462C479.868 176.396 479.42 175.175 479.468 173.8ZM479.41 189.029L483.535 189.175L483.305 195.694L502.532 196.373L502.413 199.725L479.061 198.9L479.41 189.029ZM483.888 173.956C483.851 174.68 484.129 175.317 484.724 175.867C485.32 176.416 486.177 176.852 487.297 177.174C488.429 177.485 489.756 177.667 491.279 177.721C492.813 177.775 494.15 177.687 495.289 177.457C496.441 177.215 497.333 176.84 497.966 176.334C498.598 175.828 498.927 175.213 498.953 174.488C498.979 173.739 498.695 173.09 498.1 172.54C497.505 171.978 496.642 171.536 495.51 171.213C494.39 170.891 493.063 170.703 491.528 170.649C490.006 170.595 488.669 170.689 487.517 170.931C486.378 171.174 485.491 171.554 484.858 172.073C484.226 172.579 483.903 173.207 483.888 173.956Z" fill="white"/>
<rect x="160" y="209" width="124" height="56" rx="28" fill="#616FED"/>
<path d="M187.013 241.883H182.744L181.909 247H179.2L180.035 241.883H177.257L177.695 239.201H180.486L181.17 234.986H178.406L178.844 232.305H181.622L182.456 227.187H185.166L184.331 232.305H188.6L189.435 227.187H192.117L191.282 232.305H194.087L193.622 234.986H190.83L190.146 239.201H192.938L192.5 241.883H189.695L188.86 247H186.178L187.013 241.883ZM187.464 239.201L188.148 234.986H183.879L183.195 239.201H187.464ZM202.953 231.128C202.944 232.569 203.108 233.947 203.446 235.26C203.793 236.565 204.326 237.737 205.047 238.777C205.777 239.807 206.693 240.615 207.797 241.198L205.991 243.607C204.905 243.005 203.984 242.188 203.227 241.157C202.47 240.117 201.877 238.913 201.448 237.545C200.992 239.05 200.358 240.382 199.546 241.541C198.744 242.699 197.781 243.616 196.659 244.291L194.716 242.074C195.884 241.39 196.864 240.478 197.658 239.338C198.452 238.197 199.04 236.939 199.423 235.561C199.806 234.184 199.998 232.77 199.998 231.319V226.886H202.953V231.128ZM208.126 225.135H210.999V234.439H213.544V224.697H216.472V249.436H213.544V236.902H210.999V248.231H208.126V225.135ZM241.95 246.562H219.346V244.044H229.088V240.022H222.027V231.921H236.258V228.856H221.973V226.394H239.268V234.33H225.065V237.531H239.843V240.022H232.098V244.044H241.95V246.562ZM266.141 239.365H256.59V243.908H253.498V239.365H243.537V236.929H266.141V239.365ZM245.945 230.307C245.945 229.285 246.31 228.391 247.04 227.625C247.779 226.859 248.818 226.27 250.159 225.86C251.5 225.449 253.051 225.244 254.812 225.244C256.581 225.244 258.137 225.449 259.477 225.86C260.818 226.27 261.854 226.859 262.584 227.625C263.313 228.391 263.678 229.285 263.678 230.307C263.678 231.338 263.313 232.232 262.584 232.989C261.854 233.746 260.818 234.33 259.477 234.74C258.137 235.141 256.581 235.342 254.812 235.342C253.042 235.342 251.487 235.141 250.146 234.74C248.814 234.33 247.779 233.746 247.04 232.989C246.31 232.222 245.945 231.329 245.945 230.307ZM246.301 241.609H249.366V246.453H263.651V248.943H246.301V241.609ZM249.229 230.307C249.22 230.845 249.443 231.31 249.899 231.703C250.356 232.095 251.003 232.396 251.842 232.606C252.691 232.806 253.68 232.907 254.812 232.907C255.952 232.907 256.942 232.806 257.781 232.606C258.629 232.396 259.281 232.095 259.737 231.703C260.194 231.31 260.422 230.845 260.422 230.307C260.422 229.75 260.194 229.276 259.737 228.884C259.281 228.482 258.629 228.177 257.781 227.967C256.942 227.757 255.952 227.652 254.812 227.652C253.68 227.652 252.691 227.757 251.842 227.967C251.003 228.177 250.356 228.482 249.899 228.884C249.443 229.276 249.22 229.75 249.229 230.307Z" fill="white"/>
<rect x="296" y="209" width="123.627" height="56" rx="28" fill="#616FED"/>
<path d="M322.826 241.883H318.557L317.723 247H315.013L315.848 241.883H313.07L313.508 239.201H316.3L316.984 234.986H314.22L314.658 232.305H317.435L318.27 227.187H320.979L320.144 232.305H324.413L325.248 227.187H327.93L327.095 232.305H329.9L329.435 234.986H326.644L325.96 239.201H328.751L328.313 241.883H325.508L324.673 247H321.992L322.826 241.883ZM323.278 239.201L323.962 234.986H319.693L319.009 239.201H323.278ZM339.807 229.075C339.798 230.17 340.017 231.224 340.464 232.236C340.92 233.24 341.595 234.129 342.489 234.904C343.383 235.68 344.459 236.273 345.718 236.683L344.131 239.091C342.79 238.635 341.627 237.965 340.641 237.08C339.665 236.186 338.904 235.132 338.356 233.919C337.8 235.26 337.011 236.419 335.989 237.395C334.968 238.371 333.75 239.11 332.336 239.611L330.639 237.203C331.953 236.774 333.066 236.145 333.978 235.315C334.899 234.485 335.588 233.531 336.044 232.455C336.509 231.379 336.742 230.243 336.742 229.048V226.229H339.807V229.075ZM334.607 241.089H337.727V246.48H351.437V248.943H334.607V241.089ZM347.414 224.697H350.452V232.004H353.9V234.576H350.452V242.868H347.414V224.697ZM377.708 238.763H355.159V236.3H377.708V238.763ZM356.801 246.918C358.47 246.717 359.916 246.33 361.138 245.755C362.361 245.171 363.291 244.464 363.93 243.634C364.577 242.795 364.901 241.892 364.901 240.925V240.35H367.994V240.925C367.994 241.892 368.317 242.795 368.965 243.634C369.613 244.464 370.552 245.171 371.784 245.755C373.015 246.33 374.47 246.717 376.149 246.918L375.027 249.299C373.029 249.016 371.291 248.473 369.813 247.67C368.336 246.877 367.218 245.878 366.461 244.674C365.704 245.878 364.587 246.877 363.109 247.67C361.631 248.473 359.893 249.016 357.896 249.299L356.801 246.918ZM357.266 225.901H365.859V228.309H360.304V232.017C361.353 231.999 362.333 231.944 363.246 231.853C364.167 231.762 365.102 231.611 366.051 231.401L366.324 233.864C365.129 234.111 363.975 234.27 362.862 234.343C361.75 234.416 360.377 234.457 358.744 234.466H357.266V225.901ZM367.145 225.901H375.574V228.309H370.21V232.031H375.738V234.466H367.145V225.901ZM398.89 232.496H402.338V235.014H398.89V243.196H395.852V224.724H398.89V232.496ZM379.405 227.461H385.234V224.697H388.272V227.461H394.073V229.896H379.405V227.461ZM380.664 235.643C380.664 234.704 380.919 233.878 381.43 233.167C381.941 232.446 382.657 231.89 383.578 231.497C384.5 231.105 385.553 230.909 386.739 230.909C387.916 230.909 388.96 231.105 389.873 231.497C390.794 231.89 391.51 232.446 392.021 233.167C392.532 233.878 392.787 234.704 392.787 235.643C392.787 236.574 392.532 237.395 392.021 238.106C391.51 238.808 390.798 239.356 389.886 239.748C388.974 240.131 387.925 240.323 386.739 240.323C385.544 240.323 384.486 240.131 383.565 239.748C382.653 239.356 381.941 238.808 381.43 238.106C380.919 237.395 380.664 236.574 380.664 235.643ZM383.045 241.746H386.082V246.48H399.875V248.943H383.045V241.746ZM383.619 235.643C383.61 236.373 383.884 236.943 384.44 237.354C385.006 237.764 385.759 237.969 386.698 237.969C387.665 237.969 388.436 237.769 389.011 237.367C389.594 236.957 389.886 236.382 389.886 235.643C389.886 234.904 389.599 234.325 389.024 233.905C388.45 233.477 387.688 233.262 386.739 233.262C385.79 233.262 385.029 233.477 384.454 233.905C383.889 234.325 383.61 234.904 383.619 235.643Z" fill="white"/>
<rect x="432" y="209" width="123.627" height="56" rx="28" fill="#616FED"/>
<path d="M458.826 241.883H454.557L453.723 247H451.013L451.848 241.883H449.07L449.508 239.201H452.3L452.984 234.986H450.22L450.658 232.305H453.435L454.27 227.187H456.979L456.144 232.305H460.413L461.248 227.187H463.93L463.095 232.305H465.9L465.435 234.986H462.644L461.96 239.201H464.751L464.313 241.883H461.508L460.673 247H457.992L458.826 241.883ZM459.278 239.201L459.962 234.986H455.693L455.009 239.201H459.278ZM478.324 229.212C478.315 230.863 478.279 232.35 478.215 233.673C478.151 234.986 477.996 236.492 477.75 238.188L474.931 237.997C475.168 236.455 475.323 235.041 475.396 233.755C475.469 232.46 475.506 231.155 475.506 229.842H467.624V227.379H478.324V229.212ZM466.612 241.226C467.697 241.226 468.911 241.212 470.252 241.185V234.302H473.043V241.116C475.57 240.998 477.595 240.843 479.118 240.651L479.31 242.868C476.281 243.433 472.185 243.725 467.022 243.743L466.612 241.226ZM480.349 225.162H483.168V234.795H485.522V224.697H488.395V249.436H485.522V237.285H483.168V248.231H480.349V225.162ZM512.176 239.037H509.138V224.697H512.176V239.037ZM490.803 235.725C492.135 234.913 493.088 233.796 493.663 232.373C494.247 230.941 494.543 229.413 494.552 227.789V226.038H497.426V227.789C497.417 229.048 497.558 230.266 497.85 231.443C498.142 232.61 498.653 233.636 499.382 234.521C500.094 233.645 500.591 232.624 500.874 231.456C501.166 230.279 501.312 229.057 501.312 227.789V226.038H504.185V227.789C504.167 229.468 504.45 231.014 505.033 232.428C505.617 233.832 506.584 234.932 507.934 235.725L506.265 237.887C504.623 236.929 503.455 235.374 502.762 233.221C502.105 235.502 500.983 237.139 499.396 238.133C497.763 237.103 496.618 235.443 495.962 233.153C495.241 235.333 494.087 236.911 492.5 237.887L490.803 235.725ZM495.264 240.131H512.176V249.135H495.264V240.131ZM509.22 246.672V242.539H498.274V246.672H509.22ZM534.89 232.496H538.338V235.014H534.89V243.196H531.852V224.724H534.89V232.496ZM515.405 227.461H521.234V224.697H524.272V227.461H530.073V229.896H515.405V227.461ZM516.664 235.643C516.664 234.704 516.919 233.878 517.43 233.167C517.941 232.446 518.657 231.89 519.578 231.497C520.5 231.105 521.553 230.909 522.739 230.909C523.916 230.909 524.96 231.105 525.873 231.497C526.794 231.89 527.51 232.446 528.021 233.167C528.532 233.878 528.787 234.704 528.787 235.643C528.787 236.574 528.532 237.395 528.021 238.106C527.51 238.808 526.798 239.356 525.886 239.748C524.974 240.131 523.925 240.323 522.739 240.323C521.544 240.323 520.486 240.131 519.565 239.748C518.653 239.356 517.941 238.808 517.43 238.106C516.919 237.395 516.664 236.574 516.664 235.643ZM519.045 241.746H522.082V246.48H535.875V248.943H519.045V241.746ZM519.619 235.643C519.61 236.373 519.884 236.943 520.44 237.354C521.006 237.764 521.759 237.969 522.698 237.969C523.665 237.969 524.436 237.769 525.011 237.367C525.594 236.957 525.886 236.382 525.886 235.643C525.886 234.904 525.599 234.325 525.024 233.905C524.45 233.477 523.688 233.262 522.739 233.262C521.79 233.262 521.029 233.477 520.454 233.905C519.889 234.325 519.61 234.904 519.619 235.643Z" fill="white"/>
<rect x="213.915" y="77.1035" width="175.504" height="79.1102" rx="39.5551" transform="rotate(1.63671 213.915 77.1035)" fill="#616FED"/>
<path d="M250.888 125.005L244.86 124.833L243.475 132.025L239.649 131.916L241.034 124.723L237.112 124.611L237.839 120.842L241.78 120.955L242.916 115.031L239.013 114.92L239.74 111.15L243.662 111.262L245.047 104.07L248.873 104.179L247.488 111.372L253.516 111.544L254.901 104.351L258.688 104.459L257.303 111.652L261.264 111.765L260.499 115.534L256.557 115.421L255.421 121.344L259.363 121.457L258.636 125.226L254.675 125.113L253.29 132.306L249.503 132.198L250.888 125.005ZM251.634 121.236L252.77 115.313L246.742 115.14L245.606 121.064L251.634 121.236ZM281.158 104.483C281.103 105.951 281.571 107.395 282.562 108.816C283.565 110.237 284.993 111.47 286.846 112.516C288.711 113.561 290.843 114.273 293.243 114.651L291.444 118.081C288.519 117.559 285.943 116.583 283.715 115.153C281.487 113.71 279.828 111.98 278.739 109.963C277.536 111.914 275.787 113.547 273.494 114.861C271.2 116.162 268.592 116.989 265.668 117.344L264.067 113.818C266.472 113.577 268.623 112.988 270.519 112.049C272.415 111.111 273.898 109.967 274.968 108.618C276.038 107.256 276.594 105.835 276.637 104.353L276.687 102.576L281.209 102.705L281.158 104.483ZM262.491 120.27L294.333 121.18L294.231 124.735L280.358 124.339L280.011 136.511L275.76 136.39L276.108 124.217L262.389 123.825L262.491 120.27ZM326.091 107.43L316.063 107.143C316.294 108.091 316.894 108.991 317.862 109.844C318.83 110.696 320.118 111.429 321.725 112.043C323.344 112.656 325.195 113.089 327.276 113.342L325.634 116.66C322.5 116.261 319.822 115.45 317.601 114.226C315.38 113.002 313.818 111.488 312.916 109.683C311.912 111.433 310.273 112.856 307.998 113.951C305.724 115.047 303.011 115.704 299.859 115.923L298.448 112.518C300.514 112.397 302.36 112.076 303.987 111.555C305.613 111.021 306.934 110.357 307.95 109.56C308.978 108.765 309.641 107.901 309.938 106.968L300.007 106.684L300.104 103.284L326.188 104.029L326.091 107.43ZM296.798 117.46L328.641 118.37L328.541 121.848L314.707 121.453L314.591 125.51L310.34 125.389L310.456 121.331L296.699 120.938L296.798 117.46ZM300.463 123.212L304.714 123.333L304.615 126.772L320.073 127.214L320.171 123.775L324.46 123.897L324.076 137.345L300.079 136.659L300.463 123.212ZM319.884 133.822L319.979 130.499L304.522 130.057L304.427 133.38L319.884 133.822ZM362.667 125.414L330.825 124.504L330.923 121.065L362.765 121.975L362.667 125.414ZM334.489 111.305C334.531 109.849 335.082 108.602 336.143 107.562C337.217 106.523 338.709 105.753 340.618 105.253C342.528 104.741 344.751 104.521 347.289 104.593C349.814 104.665 352.015 105.012 353.892 105.633C355.782 106.241 357.228 107.095 358.228 108.193C359.241 109.292 359.726 110.569 359.685 112.025C359.643 113.493 359.084 114.754 358.01 115.806C356.949 116.846 355.457 117.628 353.534 118.153C351.624 118.666 349.407 118.886 346.883 118.814C344.345 118.742 342.137 118.395 340.26 117.774C338.383 117.14 336.938 116.274 335.925 115.175C334.926 114.063 334.447 112.773 334.489 111.305ZM334.692 127.206L338.982 127.329L338.791 134.014L358.808 134.586L358.708 138.064L334.402 137.369L334.692 127.206ZM338.972 111.433C338.925 112.605 339.595 113.526 340.981 114.198C342.38 114.857 344.342 115.222 346.867 115.294C349.495 115.369 351.539 115.118 352.999 114.541C354.46 113.964 355.207 113.083 355.241 111.898C355.273 110.752 354.577 109.842 353.153 109.17C351.741 108.485 349.754 108.106 347.191 108.032C345.503 107.984 344.044 108.084 342.812 108.333C341.58 108.581 340.634 108.973 339.974 109.509C339.315 110.031 338.981 110.673 338.972 111.433Z" fill="white"/>
<rect x="344.009" y="32" width="175.504" height="79.1102" rx="39.5551" transform="rotate(19.9625 344.009 32)" fill="#616FED"/>
<path d="M364.046 89.0977L358.377 87.0387L354.801 93.4311L351.204 92.1244L354.78 85.7321L351.092 84.3924L352.967 81.0426L356.673 82.3889L359.614 77.123L355.944 75.79L357.819 72.4402L361.507 73.7798L365.083 67.3875L368.681 68.6941L365.104 75.0865L370.773 77.1454L374.349 70.7531L377.91 72.0465L374.334 78.4389L378.058 79.7917L376.147 83.1283L372.441 81.7821L369.5 87.0479L373.206 88.3942L371.331 91.744L367.607 90.3911L364.03 96.7835L360.469 95.49L364.046 89.0977ZM365.939 85.7545L368.88 80.4886L363.211 78.4297L360.27 83.6955L365.939 85.7545ZM404.011 94.8534L381.519 86.6836L386.336 73.4208L408.465 81.4587L407.29 84.6926L389.304 78.1594L386.823 84.9906L405.172 91.6558L404.011 94.8534ZM376.275 88.8918L406.288 99.7937L405.101 103.064L392.019 98.3126L388.1 109.104L384.103 107.653L388.022 96.8607L375.087 92.1621L376.275 88.8918ZM430.828 124.748L426.795 123.283L431.691 109.802L425.696 107.624L426.897 104.318L432.892 106.496L434.938 100.863L429.051 98.7253L430.253 95.4187L436.139 97.5568L438.739 90.3986L442.772 91.8636L430.828 124.748ZM415.326 85.1026L429.97 90.4215L425.509 102.703L414.971 98.8757L412.437 105.852C414.743 106.676 416.899 107.384 418.905 107.975C420.928 108.559 423.056 109.079 425.29 109.534L424.416 112.959C421.959 112.478 419.63 111.906 417.43 111.244C415.242 110.587 412.689 109.728 409.77 108.667L407.226 107.743L412.123 94.2626L422.697 98.1033L424.835 92.2168L414.152 88.3365L415.326 85.1026ZM470.327 123.918L457.645 119.312L455.454 125.344L451.348 123.852L453.539 117.82L440.313 113.016L441.487 109.782L471.501 120.684L470.327 123.918ZM447.879 102.15C448.372 100.794 449.287 99.7827 450.626 99.1172C451.977 98.4561 453.641 98.1764 455.62 98.2781C457.598 98.3798 459.756 98.8552 462.094 99.7043C464.444 100.558 466.41 101.58 467.992 102.772C469.575 103.964 470.666 105.245 471.265 106.614C471.864 107.983 471.918 109.346 471.425 110.703C470.928 112.071 470.012 113.082 468.678 113.736C467.344 114.389 465.688 114.665 463.709 114.563C461.735 114.45 459.573 113.966 457.224 113.112C454.874 112.259 452.905 111.242 451.319 110.063C449.748 108.875 448.655 107.601 448.039 106.239C447.44 104.87 447.386 103.507 447.879 102.15ZM442.901 117.329L446.97 118.807L444.634 125.239L463.602 132.128L462.401 135.435L439.363 127.067L442.901 117.329ZM452.239 103.734C451.968 104.444 452.04 105.17 452.457 105.911C452.873 106.651 453.588 107.363 454.601 108.047C455.631 108.722 456.896 109.333 458.398 109.878C459.912 110.428 461.275 110.773 462.486 110.911C463.714 111.041 464.725 110.956 465.52 110.655C466.314 110.355 466.841 109.847 467.101 109.132C467.369 108.393 467.295 107.654 466.879 106.913C466.467 106.16 465.748 105.44 464.723 104.752C463.71 104.068 462.446 103.452 460.932 102.902C459.43 102.356 458.066 102.018 456.838 101.888C455.623 101.762 454.615 101.855 453.816 102.168C453.021 102.469 452.496 102.991 452.239 103.734Z" fill="white"/>
<rect x="160" y="37.7012" width="194.731" height="87.8137" rx="43.9068" transform="rotate(-20.9736 160 37.7012)" fill="#616FED"/>
<path d="M218.257 70.9329L212.006 73.3291L213.656 81.2905L209.689 82.8112L208.039 74.8497L203.972 76.4088L203.108 72.2362L207.195 70.6695L205.831 64.1149L201.784 65.6662L200.92 61.4937L204.987 59.9346L203.337 51.9732L207.304 50.4526L208.954 58.414L215.205 56.0178L213.554 48.0564L217.481 46.5511L219.131 54.5126L223.238 52.9382L224.063 57.1261L219.975 58.6928L221.339 65.2474L225.426 63.6807L226.29 67.8533L222.183 69.4277L223.834 77.3891L219.907 78.8944L218.257 70.9329ZM217.412 66.7527L216.049 60.1981L209.798 62.5942L211.162 69.1489L217.412 66.7527ZM254.577 36.7428L225.006 48.0784L223.624 44.4722L236.246 39.6338L234.725 35.667L239.133 33.9774L240.653 37.9442L253.195 33.1365L254.577 36.7428ZM229.461 64.6157L262.558 51.9283L263.956 55.5746L249.531 61.1042L253.064 70.3201L248.656 72.0097L245.124 62.7938L230.859 68.262L229.461 64.6157ZM230.55 54.8688C230.049 53.5599 230.111 52.2644 230.738 50.9824C231.36 49.6871 232.496 48.455 234.147 47.286C235.805 46.0986 237.91 45.016 240.462 44.0381C243.013 43.0602 245.295 42.4609 247.309 42.2403C249.332 42.0012 251.007 42.1556 252.335 42.7034C253.659 43.2379 254.571 44.1596 255.073 45.4685C255.575 46.7774 255.515 48.0796 254.893 49.3749C254.266 50.6569 253.123 51.8916 251.464 53.079C249.814 54.2479 247.713 55.3213 245.162 56.2993C242.611 57.2772 240.324 57.8857 238.301 58.1248C236.287 58.3454 234.619 58.1884 233.295 57.654C231.967 57.1061 231.052 56.1777 230.55 54.8688ZM235.198 53.0871C235.538 54.0138 236.428 54.4769 237.868 54.4765C239.316 54.4575 241.269 53.977 243.727 53.035C246.291 52.0519 248.138 51.0758 249.268 50.1065C250.411 49.1322 250.81 48.175 250.465 47.2349C250.098 46.3184 249.177 45.8748 247.703 45.904C246.223 45.9198 244.234 46.4064 241.736 47.3638C239.225 48.3264 237.414 49.2964 236.303 50.2739C235.2 51.2329 234.832 52.1706 235.198 53.0871ZM278.546 34.77L267.126 39.1476L268.954 43.9158C271.815 42.7883 274.182 41.7891 276.054 40.9183C277.935 40.029 279.786 39.0436 281.608 37.9622L283.487 41.4241C281.549 42.565 279.575 43.5898 277.565 44.4985C275.567 45.402 272.979 46.4631 269.8 47.6816L268.558 48.1578L265.833 49.2023L261.348 37.5021L272.768 33.1245L271.109 28.797L259.649 33.19L258.282 29.6238L274.23 23.5105L278.546 34.77ZM271.72 49.9329L276.168 48.2279L278.871 55.2801L299.427 47.4004L300.825 51.0467L275.821 60.6313L271.72 49.9329ZM280.821 33.99L287.152 31.5631L285.4 26.9952L279.07 29.4221L277.703 25.8559L284.033 23.429L281.852 17.7392L286.3 16.0342L296.53 42.7203L292.082 44.4253L288.534 35.1693L282.203 37.5962L280.821 33.99ZM324.36 14.4962L329.409 12.5608L330.822 16.2472L325.774 18.1825L330.366 30.1632L325.919 31.8682L315.551 4.82147L319.998 3.11651L324.36 14.4962ZM293.005 18.0597L301.54 14.7881L299.988 10.7411L304.436 9.03611L305.987 13.0831L314.482 9.82679L315.849 13.393L294.372 21.6259L293.005 18.0597ZM299.441 29.3339C298.913 27.9582 298.824 26.606 299.173 25.2775C299.516 23.9357 300.252 22.719 301.381 21.6275C302.51 20.5361 303.943 19.6576 305.679 18.992C307.402 18.3315 309.041 18.0324 310.597 18.0948C312.166 18.152 313.527 18.5648 314.679 19.3332C315.827 20.0883 316.664 21.1537 317.191 22.5294C317.714 23.8918 317.8 25.2372 317.452 26.5657C317.098 27.8809 316.364 29.0816 315.248 30.1679C314.127 31.2409 312.699 32.1102 310.963 32.7758C309.213 33.4465 307.556 33.7599 305.992 33.7161C304.436 33.6538 303.087 33.2517 301.945 32.51C300.798 31.7549 299.963 30.6962 299.441 29.3339ZM306.352 36.933L310.8 35.228L313.457 42.16L333.652 34.4186L335.034 38.0248L310.392 47.4712L306.352 36.933ZM303.768 27.675C304.164 28.7486 304.885 29.4298 305.93 29.7185C306.989 30.0021 308.206 29.8802 309.582 29.3529C310.997 28.8102 312.013 28.0837 312.63 27.1734C313.254 26.2447 313.359 25.2394 312.944 24.1576C312.529 23.0757 311.784 22.3888 310.707 22.097C309.624 21.7918 308.389 21.9055 307 22.4379C305.611 22.9704 304.616 23.7118 304.015 24.6621C303.422 25.594 303.34 26.5982 303.768 27.675Z" fill="white"/>
<path d="M115.266 324.461C115.266 325.609 115.52 326.754 116.028 327.895C116.543 329.035 117.231 330.051 118.09 330.941C118.958 331.824 119.899 332.484 120.915 332.922L119.883 334.375C118.657 333.82 117.551 332.977 116.567 331.844C115.59 330.711 114.86 329.426 114.375 327.988C113.891 329.512 113.157 330.895 112.172 332.137C111.196 333.371 110.11 334.289 108.915 334.891L107.813 333.438C108.805 332.961 109.727 332.242 110.579 331.281C111.438 330.32 112.125 329.238 112.641 328.035C113.157 326.824 113.415 325.633 113.415 324.461V321.742H108.493V320.219H120.235V321.742H115.266V324.461ZM123.141 318.062H124.993V338.898H123.141V318.062ZM145.125 320.734C145.125 321.859 145.094 322.875 145.032 323.781C144.969 324.68 144.817 325.703 144.575 326.852H147.633V328.375H128.555V326.852H142.723C142.958 325.812 143.11 324.867 143.18 324.016C143.258 323.156 143.297 322.266 143.297 321.344V320.734V320.711H130.969V319.188H145.125V320.734ZM130.899 331.258H145.219V338.617H130.899V331.258ZM143.391 337.117V332.711H132.727V337.117H143.391ZM172.196 329.031H157.665V319.891H159.516V327.508H172.196V329.031ZM155.321 334.469H174.399V336.016H155.321V334.469ZM193.266 338.898H191.438V318.062H193.266V338.898ZM176.063 333.086C178.961 330.133 180.543 326.398 180.809 321.883H176.836V320.336H182.555C182.532 326.062 180.852 330.664 177.516 334.141L176.063 333.086ZM182.204 334.539C183.704 332.828 184.793 330.902 185.473 328.762C186.153 326.613 186.543 324.32 186.645 321.883H183.235V320.336H188.391C188.383 323.25 188.047 326 187.383 328.586C186.727 331.172 185.532 333.492 183.797 335.547L182.204 334.539ZM213.657 325.867H199.383V318.836H201.211V324.391H213.657V325.867ZM196.782 328.703H215.86V330.203H196.782V328.703ZM199.266 332.336H201.094V336.859H213.774V338.383H199.266V332.336ZM239.86 323.172H243V324.695H239.86V329.898H238.032V318.062H239.86V323.172ZM223.547 328.633C225.25 328.172 226.723 327.566 227.965 326.816C229.215 326.059 230.2 325.184 230.918 324.191C231.637 323.199 232.059 322.117 232.184 320.945H224.485V319.422H234.165C234.157 321.156 233.762 322.727 232.981 324.133C232.2 325.539 231.071 326.746 229.594 327.754C228.125 328.762 226.36 329.547 224.297 330.109L223.547 328.633ZM226.665 330.859H239.86V338.617H226.665V330.859ZM238.032 337.117V332.383H228.493V337.117H238.032ZM261.586 330.484H259.735V325.023H255.54V323.5H259.735V318.062H261.586V330.484ZM244.407 328.82C245.43 328.453 246.34 327.914 247.137 327.203C247.942 326.492 248.571 325.676 249.024 324.754C249.477 323.832 249.704 322.883 249.704 321.906V321.133H244.993V319.586H256.219V321.133H251.555V321.883C251.555 322.781 251.77 323.652 252.2 324.496C252.629 325.34 253.235 326.09 254.016 326.746C254.797 327.395 255.688 327.891 256.688 328.234L255.727 329.711C254.571 329.289 253.551 328.664 252.668 327.836C251.793 327.008 251.129 326.051 250.676 324.965C250.231 326.184 249.543 327.258 248.614 328.188C247.692 329.117 246.61 329.82 245.368 330.297L244.407 328.82ZM247.688 335.008C247.688 334.195 247.965 333.5 248.52 332.922C249.083 332.344 249.887 331.902 250.934 331.598C251.989 331.293 253.235 331.141 254.672 331.141C256.11 331.141 257.352 331.293 258.399 331.598C259.446 331.902 260.25 332.344 260.813 332.922C261.375 333.5 261.657 334.195 261.657 335.008C261.657 335.82 261.375 336.516 260.813 337.094C260.25 337.672 259.446 338.113 258.399 338.418C257.352 338.73 256.11 338.891 254.672 338.898C253.227 338.891 251.981 338.73 250.934 338.418C249.887 338.113 249.083 337.672 248.52 337.094C247.965 336.516 247.688 335.82 247.688 335.008ZM249.516 335.008C249.516 335.5 249.719 335.93 250.125 336.297C250.532 336.656 251.118 336.934 251.883 337.129C252.657 337.324 253.567 337.422 254.614 337.422C255.684 337.422 256.61 337.324 257.391 337.129C258.172 336.941 258.774 336.668 259.196 336.309C259.618 335.941 259.829 335.508 259.829 335.008C259.829 334.508 259.622 334.074 259.208 333.707C258.793 333.34 258.196 333.059 257.415 332.863C256.641 332.668 255.727 332.57 254.672 332.57C253.61 332.57 252.692 332.668 251.918 332.863C251.145 333.059 250.551 333.34 250.137 333.707C249.723 334.074 249.516 334.508 249.516 335.008ZM274.547 318.438C276.086 318.438 277.407 318.578 278.508 318.859C279.61 319.133 280.45 319.539 281.028 320.078C281.614 320.609 281.907 321.258 281.907 322.023C281.907 322.805 281.614 323.469 281.028 324.016C280.45 324.562 279.61 324.977 278.508 325.258C277.415 325.531 276.094 325.672 274.547 325.68C272.993 325.672 271.665 325.531 270.563 325.258C269.461 324.977 268.618 324.562 268.032 324.016C267.454 323.469 267.165 322.805 267.165 322.023C267.165 321.258 267.454 320.609 268.032 320.078C268.618 319.539 269.461 319.133 270.563 318.859C271.672 318.578 273 318.438 274.547 318.438ZM265.055 327.086H284.04V328.586H265.055V327.086ZM267.352 330.391H281.602V335.055H269.227V337.211H282.235V338.664H267.399V333.695H279.797V331.797H267.352V330.391ZM269.086 322.023C269.079 322.742 269.551 323.297 270.504 323.688C271.458 324.078 272.805 324.273 274.547 324.273C276.282 324.273 277.625 324.082 278.579 323.699C279.54 323.309 280.024 322.75 280.032 322.023C280.032 321.57 279.813 321.18 279.375 320.852C278.946 320.523 278.317 320.27 277.489 320.09C276.668 319.91 275.688 319.82 274.547 319.82C273.399 319.82 272.415 319.91 271.594 320.09C270.774 320.27 270.149 320.523 269.719 320.852C269.29 321.18 269.079 321.57 269.086 322.023ZM299.672 332.312H295.407L294.633 337H292.922L293.696 332.312H291.188L291.469 330.625H293.965L294.668 326.406H292.196L292.454 324.719H294.938L295.711 320.031H297.422L296.649 324.719H300.915L301.688 320.031H303.399L302.625 324.719H305.157L304.875 326.406H302.356L301.653 330.625H304.149L303.868 332.312H301.383L300.61 337H298.899L299.672 332.312ZM299.942 330.625L300.645 326.406H296.379L295.676 330.625H299.942ZM316.618 323.172H306.165V321.672H310.5V318.695H312.329V321.672H316.618V323.172ZM306.915 329.312C306.915 328.406 307.106 327.594 307.489 326.875C307.879 326.156 308.415 325.594 309.094 325.188C309.774 324.781 310.54 324.578 311.391 324.578C312.258 324.578 313.032 324.781 313.711 325.188C314.399 325.594 314.934 326.156 315.317 326.875C315.708 327.586 315.907 328.398 315.915 329.312C315.907 330.234 315.708 331.059 315.317 331.785C314.934 332.504 314.399 333.07 313.711 333.484C313.032 333.891 312.258 334.094 311.391 334.094C310.54 334.094 309.77 333.891 309.083 333.484C308.403 333.07 307.872 332.504 307.489 331.785C307.106 331.059 306.915 330.234 306.915 329.312ZM308.555 329.312C308.555 329.922 308.676 330.469 308.918 330.953C309.161 331.43 309.497 331.805 309.926 332.078C310.356 332.344 310.844 332.477 311.391 332.477C311.938 332.477 312.43 332.344 312.868 332.078C313.305 331.805 313.649 331.43 313.899 330.953C314.149 330.469 314.274 329.922 314.274 329.312C314.274 328.711 314.149 328.172 313.899 327.695C313.649 327.211 313.305 326.832 312.868 326.559C312.43 326.277 311.938 326.133 311.391 326.125C310.844 326.133 310.356 326.277 309.926 326.559C309.497 326.832 309.161 327.211 308.918 327.695C308.676 328.172 308.555 328.711 308.555 329.312ZM317.696 318.578H319.43V326.852H322.196V318.062H323.954V338.898H322.196V328.375H319.43V337.867H317.696V318.578ZM334.36 323.664C334.36 324.898 334.614 326.125 335.122 327.344C335.629 328.555 336.313 329.633 337.172 330.578C338.04 331.523 338.985 332.227 340.008 332.688L338.883 334.141C337.688 333.562 336.61 332.691 335.649 331.527C334.688 330.355 333.958 329.031 333.458 327.555C332.981 329.125 332.258 330.531 331.29 331.773C330.321 333.016 329.227 333.945 328.008 334.562L326.836 333.016C327.868 332.547 328.817 331.824 329.684 330.848C330.551 329.871 331.239 328.754 331.747 327.496C332.262 326.23 332.524 324.953 332.532 323.664V319.867H334.36V323.664ZM342.282 318.062H344.133V338.945H342.282V318.062ZM356.79 321.977H350.297V325.984H356.485V327.461H350.297V332.172C351.93 332.164 353.282 332.125 354.352 332.055C355.422 331.984 356.5 331.852 357.586 331.656L357.75 333.18C356.618 333.398 355.504 333.547 354.411 333.625C353.325 333.703 351.973 333.742 350.356 333.742H349.875H348.54V320.477H356.79V321.977ZM359.133 318.508H360.915V326.453H363.774V318.062H365.555V338.898H363.774V327.977H360.915V337.844H359.133V318.508ZM384.868 322.375C384.868 323.57 384.852 324.613 384.821 325.504C384.797 326.395 384.731 327.434 384.622 328.621C384.512 329.801 384.336 331.094 384.094 332.5L382.219 332.312C382.477 330.992 382.668 329.75 382.793 328.586C382.918 327.414 382.993 326.383 383.016 325.492C383.047 324.594 383.063 323.555 383.063 322.375V321.812H370.5V320.289H384.868V322.375ZM368.438 334.305H387.422V335.828H368.438V334.305ZM408.258 336.32H389.18V334.773H397.758V330.836H391.571V324.414H404.04V321.133H391.524V319.609H405.844V325.914H393.399V329.312H406.336V330.836H399.563V334.773H408.258V336.32ZM433.524 338.898H431.672V327.25H427.969V325.633H431.672V318.062H433.524V338.898ZM415.641 332.828C416.43 332.242 417.067 331.492 417.551 330.578C418.043 329.656 418.391 328.691 418.594 327.684C418.805 326.668 418.915 325.672 418.922 324.695V319.938H420.657V324.695C420.641 325.969 420.79 327.258 421.102 328.562C421.415 329.867 421.958 330.992 422.731 331.938C423.481 331.023 424.004 329.926 424.301 328.645C424.598 327.355 424.75 326.039 424.758 324.695V319.938H426.54V324.695C426.524 326.297 426.77 327.844 427.278 329.336C427.786 330.828 428.633 331.992 429.821 332.828L428.649 334.164C427.899 333.633 427.278 332.938 426.786 332.078C426.301 331.211 425.926 330.242 425.661 329.172C425.106 331.586 424.125 333.305 422.719 334.328C421.313 333.312 420.329 331.594 419.766 329.172C419.5 330.227 419.129 331.18 418.653 332.031C418.184 332.883 417.594 333.578 416.883 334.117L415.641 332.828ZM455.766 336.227H436.688V334.703H445.266V330.203H438.938V319.539H440.79V323.312H451.618V319.539H453.422V330.203H447.071V334.703H455.766V336.227ZM451.618 328.703V324.812H440.79V328.703H451.618ZM463.618 323.992C463.618 325.109 463.793 326.223 464.145 327.332C464.497 328.434 465 329.441 465.657 330.355C466.321 331.27 467.102 331.992 468 332.523L466.946 333.953C465.961 333.359 465.11 332.539 464.391 331.492C463.68 330.445 463.137 329.27 462.762 327.965C462.372 329.379 461.797 330.648 461.04 331.773C460.282 332.898 459.391 333.773 458.368 334.398L457.196 333.016C458.133 332.469 458.954 331.723 459.657 330.777C460.36 329.824 460.899 328.766 461.274 327.602C461.649 326.438 461.836 325.258 461.836 324.062V320.031H463.618V323.992ZM465.704 325.539H469.243V318.508H470.977V337.844H469.243V327.109H465.704V325.539ZM473.508 318.062H475.29V338.898H473.508V318.062ZM497.25 336.227H478.172V334.68H482.907V329.066C482 328.598 481.297 327.992 480.797 327.25C480.297 326.508 480.047 325.672 480.047 324.742C480.047 323.688 480.372 322.754 481.02 321.941C481.668 321.129 482.567 320.5 483.715 320.055C484.872 319.609 486.188 319.383 487.665 319.375C489.141 319.383 490.454 319.609 491.602 320.055C492.758 320.5 493.661 321.129 494.309 321.941C494.958 322.754 495.282 323.688 495.282 324.742C495.282 325.656 495.04 326.48 494.555 327.215C494.071 327.941 493.391 328.539 492.516 329.008V334.68H497.25V336.227ZM481.829 324.742C481.829 325.508 482.075 326.188 482.567 326.781C483.059 327.367 483.747 327.824 484.629 328.152C485.52 328.473 486.532 328.633 487.665 328.633C488.79 328.633 489.793 328.473 490.676 328.152C491.559 327.824 492.25 327.367 492.75 326.781C493.25 326.188 493.5 325.508 493.5 324.742C493.5 323.977 493.25 323.301 492.75 322.715C492.25 322.129 491.559 321.68 490.676 321.367C489.793 321.047 488.79 320.891 487.665 320.898C486.532 320.891 485.52 321.047 484.629 321.367C483.747 321.68 483.059 322.129 482.567 322.715C482.075 323.301 481.829 323.977 481.829 324.742ZM490.665 334.68V329.723C489.735 329.965 488.735 330.086 487.665 330.086C486.586 330.086 485.602 329.969 484.711 329.734V334.68H490.665ZM502.125 332.219H500.157L499.993 320.031H502.29L502.125 332.219ZM499.641 335.617C499.633 335.352 499.696 335.105 499.829 334.879C499.969 334.645 500.153 334.461 500.379 334.328C500.614 334.188 500.868 334.117 501.141 334.117C501.407 334.117 501.653 334.184 501.879 334.316C502.114 334.449 502.297 334.629 502.43 334.855C502.571 335.082 502.641 335.328 502.641 335.594C502.641 336.016 502.497 336.379 502.208 336.684C501.918 336.98 501.563 337.133 501.141 337.141C500.868 337.141 500.614 337.07 500.379 336.93C500.153 336.789 499.969 336.605 499.829 336.379C499.696 336.145 499.633 335.891 499.641 335.617Z" fill="#686868"/>
<path d="M290.977 340.832H388.336V342.461H290.977V340.832Z" fill="#686868"/>
</g>
<defs>
<filter id="filter0_d_3853_11997" x="-5.82" y="280.641" width="593.938" height="101.477" filterUnits="userSpaceOnUse" color-interpolation-filters="sRGB">
<feFlood flood-opacity="0" result="BackgroundImageFix"/>
<feColorMatrix in="SourceAlpha" type="matrix" values="0 0 0 0 0 0 0 0 0 0 0 0 0 0 0 0 0 0 127 0" result="hardAlpha"/>
<feOffset dx="0.149231" dy="0.149231"/>
<feGaussianBlur stdDeviation="2.98462"/>
<feComposite in2="hardAlpha" operator="out"/>
<feColorMatrix type="matrix" values="0 0 0 0 1 0 0 0 0 1 0 0 0 0 1 0 0 0 0.25 0"/>
<feBlend mode="normal" in2="BackgroundImageFix" result="effect1_dropShadow_3853_11997"/>
<feBlend mode="normal" in="SourceGraphic" in2="effect1_dropShadow_3853_11997" result="shape"/>
</filter>
<clipPath id="clip0_3853_11997">
<rect width="582" height="375" fill="white"/>
</clipPath>
<clipPath id="clip1_3853_11997">
<rect width="46.2615" height="43.2769" fill="white" transform="translate(29.8462 305.861)"/>
</clipPath>
</defs>
</svg>
