<svg width="42" height="43" viewBox="0 0 42 43" fill="none" xmlns="http://www.w3.org/2000/svg">
<path d="M10 20.499C9.44772 20.499 9 20.9467 9 21.499C9 22.0513 9.44772 22.499 10 22.499V20.499ZM32.7071 22.2061C33.0976 21.8156 33.0976 21.1824 32.7071 20.7919L26.3431 14.428C25.9526 14.0374 25.3195 14.0374 24.9289 14.428C24.5384 14.8185 24.5384 15.4516 24.9289 15.8422L30.5858 21.499L24.9289 27.1559C24.5384 27.5464 24.5384 28.1796 24.9289 28.5701C25.3195 28.9606 25.9526 28.9606 26.3431 28.5701L32.7071 22.2061ZM10 22.499H32V20.499H10V22.499Z" fill="#121212"/>
</svg>
