<svg width="154" height="64" viewBox="0 0 154 64" fill="none" xmlns="http://www.w3.org/2000/svg">
<g clip-path="url(#clip0_2565_11355)">
<path d="M20.0094 5.77603C20.7653 10.2338 12.7024 14.7899 7.59734 25.8933C2.4923 37.002 18.8974 30.6354 28.2201 19.5485C38.9396 6.79338 52.6936 20.4619 41.4593 29.536C36.2173 33.7695 24.3694 23.7984 15.1618 32.1778C5.95956 40.5518 -0.520323 35.93 0.032905 32.1778C1.00242 25.587 12.067 18.7937 8.69284 10.2392C5.3187 1.67929 13.3432 0.771332 13.3432 0.771332C13.3432 0.771332 19.0398 0.0712211 20.0094 5.77603Z" fill="white"/>
<path d="M89.3982 48.5586C87.859 52.2943 81.538 51.359 79.1005 58.4148C76.663 65.4706 70.216 64.7978 68.7699 61.6309C67.1102 57.9936 70.8185 51.3426 66.5789 47.8038C62.3393 44.2649 66.2995 41.4809 66.2995 41.4809C66.2995 41.4809 69.0986 39.4735 71.2512 42.2029C72.9328 44.336 70.0023 49.0454 70.5117 56.3637C70.813 60.6519 75.8797 61.2481 78.2076 57.9772C79.8564 55.6636 78.8321 50.6261 79.5442 47.0982C81.5161 37.3021 92.6956 40.5456 89.3927 48.5531L89.3982 48.5586Z" fill="white"/>
<path d="M73.5627 24.4925C67.5648 14.6089 51.2419 13.5369 37.1045 22.0914C22.9725 30.6458 16.3776 45.5943 22.3754 55.4779C28.3733 65.3615 44.6963 66.4335 58.8337 57.879C72.9657 49.3245 79.5606 34.3761 73.5627 24.4925ZM58.2805 56.9656C48.8866 62.654 36.6608 59.6566 30.9642 50.2817C25.2676 40.9013 28.2692 28.6932 37.6577 23.0048C47.0516 17.3164 59.2774 20.3137 64.974 29.6886C70.6706 39.069 67.6689 51.2772 58.2805 56.9656Z" fill="white"/>
<path d="M43.4366 24.3068C43.0587 25.0507 43.5736 25.9422 44.4116 25.9805H45.792C47.8296 26.0735 48.695 27.9605 48.7005 29.9952C48.7115 32.9543 44.9868 36.1595 42.2754 36.701C37.6743 37.6199 35.4121 34.814 35.8229 32.3472C36.2885 29.5358 38.0194 26.9158 38.0796 26.8119L42.9327 18.7169C43.1627 18.3012 43.6776 18.1426 44.0994 18.3559C44.4719 18.5419 44.6636 18.963 44.5595 19.3678L43.4421 24.3068H43.4366Z" fill="white"/>
<path d="M96.2399 26.0678C87.6402 24.7387 79.2651 18.3119 86.5611 17.475C93.8572 16.6382 98.7047 19.3511 100.759 17.5735C103.393 15.3036 101.257 12.6016 101.257 12.6016C101.257 12.6016 98.2939 8.77289 94.9472 13.165C92.7178 16.0858 88.9 15.4896 85.5094 15.2216C88.8288 11.1303 91.5128 8.43924 91.0636 5.77554C90.0941 0.0707329 84.3975 0.770844 84.3975 0.770844C84.3975 0.770844 76.373 1.6788 79.7471 10.2387C83.1213 18.7987 72.0567 25.5919 71.0872 32.1774C70.7147 34.7153 73.5466 37.6415 78.2627 36.7007C80.9741 36.1592 84.6988 32.954 84.6878 29.995C84.6823 27.9603 83.8169 26.0733 81.7793 25.9803H80.3989C79.5664 25.942 79.046 25.0504 79.4239 24.3066C80.021 23.1416 80.6454 22.0586 81.2863 21.0412C82.2394 21.9109 83.6635 22.7149 85.6847 23.3111C92.8548 25.4224 91.4142 34.5949 95.2211 35.9623C103.383 38.894 106.127 27.5938 96.2344 26.0678H96.2399Z" fill="white"/>
<path d="M81.9874 30.0606C80.87 36.3889 73.3658 36.9523 71.0324 31.9695C68.699 26.9867 73.552 28.2939 73.2946 21.796C72.829 10.72 61.1729 20.9044 61.1729 20.9044L61.0579 21.0467C60.5539 22.1023 60.1048 22.8407 59.3544 24.3011C58.9764 25.0449 59.4913 25.9365 60.3294 25.9748H61.7097C63.7473 26.0678 64.6128 27.9548 64.6182 29.9895C64.6292 32.9485 60.9045 36.1537 58.1931 36.6952C53.477 37.6415 50.6451 34.7097 51.0176 32.1719C51.9871 25.581 60.8333 25.4552 56.8895 17.1468C54.3151 11.7155 59.2448 10.6708 59.2448 10.6708C59.2448 10.6708 62.0274 10.0199 63.0572 13.4056C63.3365 14.3354 63.9609 14.412 62.2684 18.2954C69.9533 14.7128 70.8736 14.7402 72.4511 14.9863C76.5318 15.6153 75.5623 25.4005 75.7047 25.4005C75.8471 25.4005 83.1158 23.7268 81.9984 30.0551L81.9874 30.0606Z" fill="white"/>
<path d="M133.29 25.9802H131.909C131.077 25.942 130.556 25.0504 130.934 24.3065C136.039 14.3464 143.292 10.0199 142.569 5.78097C141.604 0.0706916 135.908 0.770802 135.908 0.770802C135.908 0.770802 127.883 1.67876 131.257 10.2387C132.189 12.6016 132.019 14.8277 131.263 16.9554C131.236 16.9007 131.214 16.846 131.181 16.7913C128.82 12.9024 122.395 12.4812 116.835 15.8451C111.276 19.2143 108.679 25.0942 111.04 28.9831C113.045 32.2867 117.975 33.0798 122.822 31.1873C122.724 31.521 122.647 31.8491 122.598 32.1773C122.225 34.7152 125.057 37.6414 129.773 36.7007C132.484 36.1592 136.209 32.954 136.198 29.9949C136.193 27.9602 135.327 26.0732 133.29 25.9802ZM125.068 29.4097C121.464 31.5921 116.769 30.4434 114.584 26.8444C112.398 23.2454 113.549 18.558 117.153 16.3756C120.757 14.1932 125.451 15.3418 127.637 18.9409C129.822 22.5399 128.672 27.2273 125.068 29.4097Z" fill="white"/>
<path d="M108.98 26.9591C107.058 28.1187 105.321 29.1853 103.766 29.9237C104.018 30.5964 104.494 31.3512 105.858 32.0896C107.332 32.8937 109.068 33.1562 110.689 32.7186C112.76 32.1662 113.762 30.8207 114.178 29.2728L114.852 29.1962L114.441 30.3011C113.735 31.8599 112.897 32.8171 112.426 33.2875C110.377 35.3331 106.839 35.1635 103.453 34.1189C100.074 33.0742 97.7076 31.22 96.6175 28.2445C96.6175 28.2335 96.6066 28.2226 96.6011 28.2117C96.5901 28.1789 96.5682 28.146 96.5573 28.1077H96.5682C95.0291 24.2571 97.6309 18.968 102.791 15.8394C108.35 12.4701 114.775 12.8968 117.136 16.7857C119.497 20.6745 114.534 23.5844 108.975 26.9537L108.98 26.9591ZM112.327 19.7119C113.253 19.154 113.428 17.8522 112.65 17.1029C110.087 14.6361 106.094 14.0946 102.906 16.0254C99.7178 17.9561 98.3539 21.7411 99.3563 25.1542C99.663 26.1934 100.895 26.6364 101.821 26.0731L112.327 19.7119Z" fill="white"/>
<path d="M151.803 47.831C149.607 49.1273 111.599 48.7827 96.015 45.5119C95.3413 45.3697 94.6402 45.222 93.9117 45.0853C92.734 46.7426 91.5618 48.5913 90.4828 50.6971C90.1048 51.441 90.6197 52.3325 91.4578 52.3708H92.8381C94.8757 52.4638 95.7412 54.3508 95.7467 56.3855C95.7576 59.3446 92.0329 62.5498 89.3215 63.0913C84.6054 64.0375 81.7735 61.1058 82.146 58.5679C82.5623 55.7456 84.8245 52.8904 87.0155 49.8712C85.4051 49.4774 83.7619 48.3506 83.0443 47.2184C81.1655 44.2594 82.4254 41.5683 84.2494 41.1636C86.2103 40.726 88.6478 41.448 91.1784 42.1262C91.5947 40.3705 91.5618 38.5491 90.8114 36.6347C87.4373 28.0748 95.4618 27.1668 95.4618 27.1668C95.4618 27.1668 101.158 26.4667 102.128 32.1715C102.626 35.1197 99.2742 38.1115 95.4673 43.0123C95.67 43.0342 95.8726 43.0506 96.0698 43.0615C98.0143 43.16 144.223 42.7662 145.811 41.3113C150.757 36.7824 153.48 41.995 153.48 41.995C153.48 41.995 155.446 45.6815 151.814 47.831H151.803Z" fill="white"/>
<path d="M51.7733 10.4193C49.648 13.0009 46.0548 13.5588 43.7487 11.6609C41.4427 9.76839 41.3003 6.14203 43.431 3.56038C45.5563 0.97872 49.1496 0.420819 51.4556 2.31877C53.7616 4.21126 53.904 7.83761 51.7733 10.4193Z" fill="white"/>
</g>
<defs>
<clipPath id="clip0_2565_11355">
<rect width="154" height="63.1795" fill="white" transform="translate(0 0.743652)"/>
</clipPath>
</defs>
</svg>
