<svg xmlns="http://www.w3.org/2000/svg" width="237" height="60" viewBox="0 0 237 60" fill="none">
<path d="M151.211 10.3632C143.417 -2.16422 122.207 -3.52303 103.837 7.3197C85.4738 18.1624 76.9043 37.1095 84.6979 49.6368C92.4916 62.1642 113.702 63.523 132.072 52.6803C150.435 41.8376 159.005 22.8905 151.211 10.3632ZM131.716 52.1188C119.175 59.5229 102.848 55.6267 95.2461 43.4113C87.6446 31.1959 91.6446 15.2923 104.186 7.88818C116.727 0.484066 133.054 4.38024 140.656 16.5956C148.257 28.811 144.257 44.7146 131.716 52.1188Z" fill="#616FED"/>
<path d="M192.12 10.3632C184.327 -2.16422 163.116 -3.52303 144.746 7.3197C126.383 18.1624 117.813 37.1095 125.607 49.6369C133.401 62.1642 154.611 63.523 172.981 52.6803C191.344 41.8376 199.914 22.8905 192.12 10.3632ZM172.625 52.1188C160.084 59.5229 143.757 55.6267 136.155 43.4113C128.554 31.1959 132.554 15.2923 145.095 7.88818C157.636 0.484066 173.963 4.38024 181.565 16.5956C189.166 28.811 185.166 44.7146 172.625 52.1188Z" fill="#616FED"/>
<path d="M69.3929 10.3632C61.5992 -2.16422 40.3891 -3.52303 22.0188 7.3197C3.65564 18.1624 -4.91383 37.1095 2.87983 49.6368C10.6735 62.1642 31.8837 63.523 50.2539 52.6803C68.6171 41.8376 77.1866 22.8905 69.3929 10.3632ZM49.8981 52.1188C37.357 59.5229 21.0295 55.6267 13.428 43.4113C5.82648 31.1959 9.82651 15.2923 22.3676 7.88818C34.9086 0.484066 51.2361 4.38024 58.8376 16.5956C66.4391 28.811 62.4391 44.7146 49.8981 52.1188Z" fill="#616FED"/>
<path d="M110.302 10.3632C102.508 -2.16422 81.2982 -3.52303 62.928 7.3197C44.5648 18.1624 35.9953 37.1095 43.789 49.6369C51.5827 62.1642 72.7928 63.523 91.1631 52.6803C109.526 41.8376 118.096 22.8905 110.302 10.3632ZM90.8072 52.1188C78.2662 59.5229 61.9386 55.6267 54.3371 43.4113C46.7357 31.1959 50.7357 15.2923 63.2767 7.88818C75.8178 0.484066 92.1453 4.38024 99.7468 16.5956C107.348 28.811 103.348 44.7146 90.8072 52.1188Z" fill="#616FED"/>
<path d="M233.393 10.3632C225.599 -2.16422 204.389 -3.52303 186.019 7.3197C167.656 18.1624 159.086 37.1095 166.88 49.6369C174.673 62.1642 195.884 63.523 214.254 52.6803C232.617 41.8376 241.187 22.8905 233.393 10.3632ZM213.898 52.1188C201.357 59.5229 185.029 55.6267 177.428 43.4113C169.826 31.1959 173.827 15.2923 186.368 7.88818C198.909 0.484066 215.236 4.38024 222.838 16.5956C230.439 28.811 226.439 44.7146 213.898 52.1188Z" fill="#616FED"/>
</svg>