<svg xmlns="http://www.w3.org/2000/svg" width="24" height="24" viewBox="0 0 24 24" fill="none">
  <g clip-path="url(#clip0_4270_8839)">
    <path d="M16.8591 6.66926H7.38108C6.89639 6.66926 6.50348 6.27634 6.50348 5.79166C6.50348 5.30698 6.89639 4.91406 7.38108 4.91406H16.8591C17.3438 4.91406 17.7367 5.30698 17.7367 5.79166C17.7367 6.27634 17.3438 6.66926 16.8591 6.66926Z" fill="#E43446" stroke="#E43446" stroke-width="0.351039"/>
    <path fill-rule="evenodd" clip-rule="evenodd" d="M6.50354 9.12681V18.6049C6.50354 19.3804 7.1322 20.009 7.9077 20.009H16.3326C17.1081 20.009 17.7368 19.3804 17.7368 18.6049V9.12681C17.7368 8.35132 17.1081 7.72266 16.3326 7.72266H7.9077C7.1322 7.72266 6.50354 8.35132 6.50354 9.12681ZM10.0138 17.7272V10.3553C10.0138 9.87065 9.6209 9.47773 9.13622 9.47773C8.65153 9.47773 8.25862 9.87065 8.25862 10.3553V17.7272C8.25862 18.2118 8.65153 18.6048 9.13622 18.6048C9.6209 18.6048 10.0138 18.2118 10.0138 17.7272ZM13.1732 10.3553V17.7272C13.1732 18.2118 12.7803 18.6048 12.2956 18.6048C11.8109 18.6048 11.418 18.2118 11.418 17.7272V10.3553C11.418 9.87065 11.8109 9.47773 12.2956 9.47773C12.7803 9.47773 13.1732 9.87065 13.1732 10.3553ZM16.3326 17.7272V10.3553C16.3326 9.87065 15.9396 9.47773 15.455 9.47773C14.9703 9.47773 14.5774 9.87065 14.5774 10.3553V17.7272C14.5774 18.2118 14.9703 18.6048 15.455 18.6048C15.9396 18.6048 16.3326 18.2118 16.3326 17.7272Z" fill="#E43446"/>
    <path d="M6.67906 18.6049V9.12681H6.32802V18.6049H6.67906ZM7.9077 19.8335C7.22914 19.8335 6.67906 19.2834 6.67906 18.6049H6.32802C6.32802 19.4773 7.03527 20.1846 7.9077 20.1846V19.8335ZM16.3326 19.8335H7.9077V20.1846H16.3326V19.8335ZM17.5613 18.6049C17.5613 19.2834 17.0112 19.8335 16.3326 19.8335V20.1846C17.2051 20.1846 17.9123 19.4773 17.9123 18.6049H17.5613ZM17.5613 9.12681V18.6049H17.9123V9.12681H17.5613ZM16.3326 7.89818C17.0112 7.89818 17.5613 8.44825 17.5613 9.12681H17.9123C17.9123 8.25438 17.2051 7.54714 16.3326 7.54714V7.89818ZM7.9077 7.89818H16.3326V7.54714H7.9077V7.89818ZM6.67906 9.12681C6.67906 8.44826 7.22914 7.89818 7.9077 7.89818V7.54714C7.03527 7.54714 6.32802 8.25438 6.32802 9.12681H6.67906ZM9.83829 10.3553V17.7272H10.1893V10.3553H9.83829ZM9.13622 9.65325C9.52396 9.65325 9.83829 9.96759 9.83829 10.3553H10.1893C10.1893 9.77371 9.71784 9.30221 9.13622 9.30221V9.65325ZM8.43414 10.3553C8.43414 9.96759 8.74847 9.65325 9.13622 9.65325V9.30221C8.5546 9.30221 8.0831 9.77371 8.0831 10.3553H8.43414ZM8.43414 17.7272V10.3553H8.0831V17.7272H8.43414ZM9.13622 18.4292C8.74847 18.4292 8.43414 18.1149 8.43414 17.7272H8.0831C8.0831 18.3088 8.5546 18.7803 9.13622 18.7803V18.4292ZM9.83829 17.7272C9.83829 18.1149 9.52396 18.4292 9.13622 18.4292V18.7803C9.71784 18.7803 10.1893 18.3088 10.1893 17.7272H9.83829ZM13.3487 17.7272V10.3553H12.9977V17.7272H13.3487ZM12.2956 18.7803C12.8772 18.7803 13.3487 18.3088 13.3487 17.7272H12.9977C12.9977 18.1149 12.6833 18.4292 12.2956 18.4292V18.7803ZM11.2425 17.7272C11.2425 18.3088 11.714 18.7803 12.2956 18.7803V18.4292C11.9078 18.4292 11.5935 18.1149 11.5935 17.7272H11.2425ZM11.2425 10.3553V17.7272H11.5935V10.3553H11.2425ZM12.2956 9.30221C11.714 9.30221 11.2425 9.77371 11.2425 10.3553H11.5935C11.5935 9.96759 11.9078 9.65325 12.2956 9.65325V9.30221ZM13.3487 10.3553C13.3487 9.77371 12.8772 9.30221 12.2956 9.30221V9.65325C12.6833 9.65325 12.9977 9.96759 12.9977 10.3553H13.3487ZM16.157 10.3553V17.7272H16.5081V10.3553H16.157ZM15.455 9.65325C15.8427 9.65325 16.157 9.96759 16.157 10.3553H16.5081C16.5081 9.77371 16.0366 9.30221 15.455 9.30221V9.65325ZM14.7529 10.3553C14.7529 9.96759 15.0672 9.65325 15.455 9.65325V9.30221C14.8733 9.30221 14.4018 9.77371 14.4018 10.3553H14.7529ZM14.7529 17.7272V10.3553H14.4018V17.7272H14.7529ZM15.455 18.4292C15.0672 18.4292 14.7529 18.1149 14.7529 17.7272H14.4018C14.4018 18.3088 14.8733 18.7803 15.455 18.7803V18.4292ZM16.157 17.7272C16.157 18.1149 15.8427 18.4292 15.455 18.4292V18.7803C16.0366 18.7803 16.5081 18.3088 16.5081 17.7272H16.157Z" fill="#E43446"/>
    <path d="M13.8661 5.61652H10.7067C10.222 5.61652 9.8291 5.22361 9.8291 4.73893C9.8291 4.25424 10.222 3.86133 10.7067 3.86133H13.8661C14.3507 3.86133 14.7437 4.25424 14.7437 4.73893C14.7437 5.22361 14.3507 5.61652 13.8661 5.61652Z" fill="#E43446" stroke="#E43446" stroke-width="0.351039"/>
  </g>
  <defs>
    <clipPath id="clip0_4270_8839">
      <rect width="24" height="24" fill="white"/>
    </clipPath>
  </defs>
</svg>