<svg xmlns="http://www.w3.org/2000/svg" width="16" height="16" viewBox="0 0 16 16" fill="none">
<path d="M4.00695 13.6739L0.816058 15.0031C0.7494 15.0309 0.681026 14.9673 0.703866 14.8988L1.76409 11.719C1.76836 11.7061 1.77566 11.6945 1.78537 11.6851L10.7128 3.03884C10.7458 3.00688 10.7983 3.0073 10.8308 3.03978L12.9612 5.16963C12.9948 5.20325 12.994 5.25803 12.9593 5.29054L4.03213 13.6576C4.02478 13.6645 4.01625 13.67 4.00695 13.6739Z" fill="white" stroke="white" stroke-width="0.84153"/>
<path d="M14.3571 4.53367C14.1961 4.71751 13.9128 4.72594 13.7411 4.55201L11.4608 2.24213C11.3059 2.08518 11.2984 1.83527 11.4437 1.66939L12.4255 0.548722C12.5866 0.364884 12.8699 0.35645 13.0416 0.530381L15.3219 2.84027C15.4768 2.99721 15.4843 3.24712 15.3389 3.413L14.3571 4.53367Z" fill="white"/>
</svg>